<?xml version="1.0" encoding="UTF-8"?>
<svg xmlns="http://www.w3.org/2000/svg" width="92" height="24" fill="none" viewBox="0 0 92 24">
  <g clip-path="url(#a)">
    <path fill="#000" d="M45.67 4.4h2.627v14.112H45.67V4.401Zm-30.284.155H25.43v2.266h-7.417v3.348h4.944v2.266h-4.944v3.708h7.674v2.266h-10.3V4.555Z"></path>
    <path fill="#000" d="M24.966 8.624h2.678l2.37 6.901 2.162-6.901h2.575l-3.605 9.888h-2.42l-3.76-9.888Z"></path>
    <path fill="#000" fill-rule="evenodd" d="M39.438 8.418c-2.987 0-5.099 2.111-5.099 5.15s2.06 5.099 4.996 5.099c2.987 0 5.15-2.112 5.15-5.099 0-3.039-2.06-5.15-5.047-5.15Zm0 2.06c1.494 0 2.42 1.133 2.42 3.039v.103c0 1.854-.926 2.935-2.471 2.935s-2.42-1.081-2.42-2.935v-.103c0-1.906.926-3.04 2.471-3.04Z" clip-rule="evenodd"></path>
    <path fill="#000" d="M49.79 8.624v5.923c0 2.523 1.39 4.12 3.605 4.171 1.236 0 2.163-.566 2.678-1.596v1.39h2.576V8.624h-2.575v5.047c0 1.7-.567 2.833-1.906 2.833-1.185 0-1.803-.773-1.803-2.112V8.624H49.79Zm11.33 7.262v-5.15h-1.39V8.623h1.39V6.718l2.524-1.442v3.296h1.958v2.112h-1.958v4.944c0 .464.206.67.721.721H65.5v2.163h-2.01c-1.905-.103-2.368-1.03-2.368-2.626Zm8.344-11.279h-2.678V7.13h2.678V4.607Zm-.051 4.017h-2.627v9.888h2.627V8.624Z"></path>
    <path fill="#000" fill-rule="evenodd" d="M70.597 13.568c0-3.039 2.112-5.15 5.099-5.15s5.047 2.111 5.047 5.15c0 2.987-2.111 5.099-5.15 5.099-2.936 0-4.996-2.06-4.996-5.099Zm7.52-.051c0-1.906-.928-3.04-2.421-3.04-1.545 0-2.472 1.134-2.472 3.04v.103c0 1.854.875 2.935 2.42 2.935s2.472-1.081 2.472-2.935v-.103Z" clip-rule="evenodd"></path>
    <path fill="#000" d="M84.503 8.624h-2.575v9.837h2.575v-5.047c0-1.803.772-2.833 2.008-2.833 1.237 0 1.752.721 1.752 2.112v5.82h2.575v-5.924c0-2.73-1.288-4.171-3.451-4.171-1.39 0-2.37.67-2.884 1.802V8.624Zm-74.473 2.42c.824.052 1.7 0 2.678-.051-.154-1.957-.772-3.605-1.75-4.893.05.36.05.721.05 1.082 0 1.39-.36 2.73-.978 3.862Zm-.36.567c-1.442 2.163-3.915 3.605-6.696 3.605h-.618c-.67 1.082-1.133 2.266-1.648 3.4 4.996 2.678 11.485-.155 12-6.954a20.364 20.364 0 0 0-3.038-.051Z"></path>
    <path fill="url(#b)" d="M.708 3.989c1.39 3.141 2.42 6.85 9.322 7.055a8.112 8.112 0 0 0 .979-3.862c0-.36 0-.721-.052-1.082C8.588 3.01 4.262 2.083.708 3.99Z"></path>
    <path fill="url(#c)" d="M9.67 11.611c-4.12.206-6.078 1.7-7.314 3.554h.618c2.833.051 5.254-1.39 6.696-3.554Z"></path>
    <path fill="#000" d="M11.266 19.336h-.154v-.103h.412v.103h-.155v.412h-.103v-.412Zm.567-.103h-.206l.051.515h.103v-.412l.103.412h.103l.155-.412v.412h.103v-.515h-.206l-.103.36-.103-.36Z"></path>
    <path fill="#000" fill-rule="evenodd" d="M11.678 18.512c-.566 0-1.03.464-1.03 1.03 0 .567.464 1.03 1.03 1.03.567 0 1.03-.463 1.03-1.03 0-.618-.463-1.03-1.03-1.03Zm0 1.803a.813.813 0 0 1-.824-.824c0-.464.36-.824.824-.824.464 0 .824.36.824.824 0 .463-.36.824-.824.824Z" clip-rule="evenodd"></path>
  </g>
  <defs>
    <radialGradient id="b" cx="0" cy="0" r="1" gradientTransform="rotate(-146.372 3.99 2.626) scale(6.8372 6.15791)" gradientUnits="userSpaceOnUse">
      <stop offset=".17" stop-color="#ECECEC"></stop>
      <stop offset=".215" stop-color="#D6D6D6"></stop>
      <stop offset=".354" stop-color="#969696"></stop>
      <stop offset=".487" stop-color="#606060"></stop>
      <stop offset=".611" stop-color="#373737"></stop>
      <stop offset=".722" stop-color="#191919"></stop>
      <stop offset=".817" stop-color="#060606"></stop>
      <stop offset=".885"></stop>
    </radialGradient>
    <radialGradient id="c" cx="0" cy="0" r="1" gradientTransform="matrix(-1.2194 -2.57709 6.85214 -3.24221 6.018 13.386)" gradientUnits="userSpaceOnUse">
      <stop offset=".116" stop-color="#ECECEC"></stop>
      <stop offset=".169" stop-color="#E1E1E1"></stop>
      <stop offset=".265" stop-color="#C2C2C2"></stop>
      <stop offset=".392" stop-color="#909090"></stop>
      <stop offset=".545" stop-color="#4C4C4C"></stop>
      <stop offset=".699"></stop>
    </radialGradient>
    <clipPath id="a">
      <path fill="#fff" d="M0 0h91v24H0z" transform="translate(.002)"></path>
    </clipPath>
  </defs>
</svg>
