<?xml version="1.0" encoding="UTF-8"?>
<svg xmlns="http://www.w3.org/2000/svg" width="65" height="24" fill="none" viewBox="0 0 65 24">
  <g clip-path="url(#a)">
    <path fill="#F72442" d="M60.846 5.466c1.452 0 2.733-1.28 2.733-2.733C63.58 1.281 62.3 0 60.846 0c-1.537 0-2.776 1.238-2.733 2.733 0 1.452 1.239 2.69 2.733 2.733Z"></path>
    <path fill="#000" d="M53.885 18.747H57.9V6.79h-4.015v11.957Zm-8.284-4.014c-1.367 0-2.136-1.11-2.093-2.434 0-1.281.726-2.349 2.093-2.349.768 0 1.58.3 2.178.982v2.904c-.556.556-1.367.854-2.178.897ZM45.558 24c4.27 0 6.192-2.093 6.235-5.637V6.747h-4.014v.684c-.727-.641-1.794-1.025-2.947-1.068-3.246 0-5.424 2.434-5.424 5.85 0 3.502 2.136 5.98 5.424 5.937 1.196 0 2.263-.47 2.947-1.068v1.196c0 1.28-.77 1.964-2.477 1.964-1.367 0-3.246-.512-4.826-1.666v3.844c1.025.854 3.032 1.58 5.082 1.58Zm-15.032-4.868c1.452 0 2.52-.556 3.203-1.239v.854h3.928V6.79h-4.014v7.687c-.47.64-1.153 1.067-1.836 1.067-.94 0-1.623-.683-1.623-1.708V6.833H26.17v8.028c.085 2.733 2.135 4.27 4.356 4.27Zm-17.167-.342h11.017v-3.33l-5.68-.044 5.595-5.423v-3.16L13.487 6.79v3.246h5.466l-5.594 5.423v3.331ZM.077 18.747l11.83.043v-3.843H4.22v-2.733h6.918V8.456H4.22V5.637h7.687V1.879L.077 1.836v16.911Z"></path>
  </g>
  <defs>
    <clipPath id="a">
      <path fill="#fff" d="M0 0h64v24H0z" transform="translate(.002)"></path>
    </clipPath>
  </defs>
</svg>
