<?xml version="1.0" encoding="UTF-8"?>
<svg xmlns="http://www.w3.org/2000/svg" width="97" height="24" fill="none" viewBox="0 0 97 24">
  <g clip-path="url(#a)">
    <path fill="#000" d="M25.004 0a30.139 30.139 0 0 1-.377 4.784c-.13.81-.29 1.608-.485 2.394-.197.81-.428 1.609-.691 2.392H7.73a25.422 25.422 0 0 1-.838-2.392h14.82a27.727 27.727 0 0 0 .837-4.786H3.57c.07.808.174 1.606.31 2.392A27.913 27.913 0 0 0 5.165 9.57a26.602 26.602 0 0 0 1.011 2.393 27.096 27.096 0 0 0 2.117 3.67 27.344 27.344 0 0 0 1.425 1.9 26.135 26.135 0 0 0 1.593 1.787 27.025 27.025 0 0 0 1.768 1.669v-.034a27.35 27.35 0 0 0 1.729-1.634l.173-.18a26.425 26.425 0 0 0 1.42-1.606 26.568 26.568 0 0 0 1.463-1.959c.271-.399.533-.805.784-1.22H10.32a24.894 24.894 0 0 1-1.46-2.393h13.672a30.216 30.216 0 0 1-4.254 6.998l-.148.18c-.088.107-.177.212-.266.317a30.571 30.571 0 0 1-2.93 3.003 30.395 30.395 0 0 1-1.872 1.54c-.034-.024-.065-.048-.096-.072a29.365 29.365 0 0 1-2.28-1.923 33.92 33.92 0 0 1-1.252-1.237 30.258 30.258 0 0 1-1.444-1.626l-.146-.182a29.697 29.697 0 0 1-1.94-2.673 30.004 30.004 0 0 1-2.313-4.323c-.029-.062-.055-.124-.082-.187a30.342 30.342 0 0 1-.837-2.206A29.25 29.25 0 0 1 1.98 7.18a29.016 29.016 0 0 1-.487-2.396A30.235 30.235 0 0 1 1.115 0h23.89Zm8.693 6.732c.648 0 1.194.218 1.637.655.443.437.665.973.665 1.609a2.17 2.17 0 0 1-.665 1.608c-.443.437-.989.655-1.638.655h-1.184v2.216h-1.33V6.732h2.515Zm0 3.285a.93.93 0 0 0 .703-.293c.186-.196.28-.439.28-.728 0-.295-.094-.539-.28-.732a.937.937 0 0 0-.703-.288h-1.185v2.042h1.184Zm5.683 3.593c-.75 0-1.367-.212-1.85-.636-.48-.423-.721-.992-.721-1.705V6.732h1.32v4.43c0 .354.1.633.303.839.203.205.52.308.949.308.43 0 .747-.103.949-.308.202-.206.303-.485.303-.838V6.732h1.33v4.537c0 .713-.241 1.28-.723 1.704-.483.425-1.102.637-1.86.637Zm6.078 0c-.668 0-1.23-.15-1.686-.448a2.391 2.391 0 0 1-.963-1.219l1.137-.664c.263.687.78 1.03 1.55 1.03.373 0 .646-.068.82-.202a.62.62 0 0 0 .26-.51.62.62 0 0 0-.318-.555c-.212-.131-.591-.274-1.137-.428a7.068 7.068 0 0 1-.766-.27 3.266 3.266 0 0 1-.626-.361 1.478 1.478 0 0 1-.477-.574 1.87 1.87 0 0 1-.164-.809c0-.61.217-1.096.65-1.459.434-.362.955-.544 1.566-.544.546 0 1.026.134 1.44.4.414.266.737.637.968 1.112l-1.117.645c-.27-.578-.7-.866-1.29-.866-.277 0-.493.062-.65.187a.592.592 0 0 0-.236.487c0 .211.088.384.265.515.176.132.515.275 1.016.428.206.065.361.114.467.15.106.035.25.089.434.163.183.074.324.143.423.207.1.064.213.151.342.26.128.11.227.221.294.337a1.897 1.897 0 0 1 .246.954c0 .622-.227 1.117-.68 1.483-.453.368-1.042.551-1.768.551Zm7.099-6.878h1.32v6.743h-1.32V10.68h-2.504v2.794h-1.33V6.732h1.33V9.41h2.504V6.732Zm11.598 3.121v.52c0 .963-.309 1.744-.925 2.341-.616.598-1.412.896-2.389.896-1.04 0-1.902-.339-2.586-1.016-.684-.678-1.026-1.505-1.026-2.48 0-.983.34-1.815 1.016-2.495.678-.68 1.517-1.022 2.52-1.022.629 0 1.203.143 1.724.429.52.286.925.666 1.213 1.141l-1.136.655a1.785 1.785 0 0 0-.727-.674 2.258 2.258 0 0 0-1.084-.26c-.642 0-1.17.21-1.585.63-.414.421-.62.953-.62 1.595 0 .636.21 1.16.63 1.574.421.415.978.622 1.672.622.514 0 .939-.114 1.276-.343.337-.228.567-.54.689-.94h-2.042V9.852h3.38v.002Zm5.135 3.622-.43-1.214h-2.77l-.404 1.214h-1.435l2.36-6.743h1.648l2.379 6.743h-1.349Zm-2.766-2.456h1.898l-.973-2.755-.925 2.755ZM77.89 6.732v6.743h-1.32V9.102l-1.9 3.128-.156.005-1.892-3.116v4.356h-1.33V6.732h1.368l1.933 3.184 1.924-3.184h1.373Zm2.582 0h-1.33v6.743h1.33V6.732Zm5.153 0h1.33v6.743h-1.012l-2.89-4.123v4.123h-1.329V6.732h1.01l2.89 4.107V6.732Zm9.199 3.121v.52c0 .963-.309 1.744-.925 2.341-.616.598-1.412.896-2.389.896-1.04 0-1.902-.339-2.586-1.016-.684-.678-1.026-1.505-1.026-2.48 0-.983.34-1.815 1.016-2.495.678-.68 1.517-1.022 2.52-1.022.63 0 1.204.143 1.723.429.52.286.925.666 1.214 1.141l-1.136.655a1.785 1.785 0 0 0-.727-.674 2.258 2.258 0 0 0-1.084-.26c-.642 0-1.17.21-1.584.63-.415.421-.622.953-.622 1.595 0 .636.21 1.16.632 1.574.42.415.977.622 1.671.622.514 0 .939-.114 1.276-.343.338-.228.567-.54.69-.94h-2.043V9.852h3.38v.002Z"></path>
  </g>
  <defs>
    <clipPath id="a">
      <path fill="#fff" d="M0 0h96v24H0z" transform="translate(.41)"></path>
    </clipPath>
  </defs>
</svg>
