<?xml version="1.0" encoding="UTF-8"?>
<svg xmlns="http://www.w3.org/2000/svg" width="90" height="24" fill="none" viewBox="0 0 90 24">
  <path fill="#007CBA" d="M82.402 18.56H5.095c-1.908 0-2.877-.97-3.265-2.088a3.582 3.582 0 0 1-.044-2.132l1.43-5.158c.403-1.386 1.596-3.697 4.517-3.697h77.724c2.684 0 3.862 1.85 3.429 3.906-.298 1.49-1.52 5.441-1.52 5.441-.478 2.207-2.326 3.727-4.964 3.727Z"></path>
  <path fill="#000" d="M71.386 24H50.814c-3.1 0-6.082-2.848-5.664-5.918.447-3.28 2.295-8.423 3.324-11.568C49.696 2.758 53.393 0 56.479 0h21.317a5.624 5.624 0 0 1 5.47 7.17c-.984 3.175-2.563 8.184-3.532 11.091C78.824 20.974 74.47 24 71.386 24Z"></path>
  <path fill="#DD2027" d="M78.138 1.804s-3.399.014-4.636 0c-3.37-.045-6.186 2.265-7.021 4.919l-2.37 7.498c-2.64 6.514.73 7.617 3.055 7.602h3.876c2.862 0 6.008-2.072 6.842-4.725l3.22-10.256c.865-2.385-.551-5.038-2.966-5.038Zm-5.202 15.13h-4.502l3.13-9.958h4.502l-3.13 9.958ZM55.659 14.4h2.49l-.805 2.52h-4.86l.67-2.118.12-.372 1.596-4.95.79-2.489h9.302l.044-.149 1.357-4.74s-7.722.014-8.96 0c-3.369-.045-6.127 2.519-6.722 4.62l-2.37 7.499c-2.967 6.976.938 7.602 3.055 7.602h3.876c3.504 0 6.008-2.221 6.842-4.875l2.162-7.483H57.24L55.659 14.4Z"></path>
  <path fill="#fff" d="M41.08 15.592 42.108 12l-1.893-.015-1.043 3.592-2.102.015 1.148-3.742c.343-.969 1.356-1.908 2.712-1.893h1.953c1.088 0 1.64.91 1.386 1.968l-1.133 3.652-2.056.015Zm-2.52-5.381h-2.757l.85-2.385h2.713l-.805 2.385Zm-6.394 1.402h-1.834l1.238-3.981h-2.102l-1.282 4.115c-.239 1.058.298 1.968 1.386 1.968h.015l-.582 1.878h2.057l.597-1.878a2.879 2.879 0 0 0 2.594-1.879l1.327-4.203h-2.057l-1.357 3.98ZM26.68 7.632h-1.953a2.846 2.846 0 0 0-2.712 1.893l-1.983 6.082h2.087l.641-1.968 1.849.015-.551 1.952h2.01L28.082 9.6c.239-1.057-.298-1.967-1.401-1.967Zm-1.417 3.98h-1.968l.67-1.968h1.939l-.64 1.969Zm-9.6-3.98-2.534 7.96h6.083l1.296-3.98h-2.042l-.626 1.969h-1.893l1.848-5.949h-2.132Zm-2.832 0H8.896l-2.564 7.976H8.42l.64-1.968h1.834s1.908.09 2.669-1.864c.238-.611.7-2.132.7-2.132.357-1.207-.328-2.012-1.432-2.012Zm-1.267 3.98H9.612l.67-1.968h1.938l-.656 1.969Z"></path>
</svg>
