<?xml version="1.0" encoding="UTF-8"?>
<svg xmlns="http://www.w3.org/2000/svg" width="120" height="40" version="1.1">
  <!-- Generator: Sketch 49 (51002) - http://www.bohemiancoding.com/sketch -->
  <title>Logo</title>
  <desc>Created with Sketch.</desc>
  <g>
    <title>Layer 1</title>
    <g fill-rule="evenodd" fill="none" id="Page-1">
      <g fill="#000000" id="Game---Backgammon">
        <g id="Logo">
          <path id="Fill-1" d="m13.13652,25.03299l0,-1.96598l5.18861,0l0,2.28798c0,2.0941 0.80912,3.14172 2.42621,3.14172l0.02051,0c1.60228,0 2.40456,-1.04422 2.40456,-3.13152c0,-1.19274 -0.3453,-2.31065 -1.03818,-3.35487c-0.69173,-1.04422 -1.51908,-1.99887 -2.48205,-2.86395l-2.60057,-2.68367c-1.07464,-0.93878 -1.97379,-2.10204 -2.69743,-3.48866c-0.72479,-1.38776 -1.08718,-2.92404 -1.08718,-4.60885c0,-2.59297 0.68376,-4.58163 2.05128,-5.96825c1.36638,-1.38662 3.22393,-2.07937 5.57037,-2.07937c2.34644,0 4.14815,0.69275 5.40627,2.07823c1.25812,1.38549 1.88718,3.37415 1.88718,5.96599l0,1.02835l-4.78519,0l0,-1.34014c0,-2.10091 -0.84558,-3.15193 -2.53789,-3.15193c-1.69231,0 -2.53789,1.05216 -2.53789,3.1542c0,0.87982 0.18461,1.71882 0.5527,2.517c0.3681,0.79819 0.84559,1.51701 1.43248,2.15873c0.5869,0.64059 1.23419,1.27438 1.94074,1.90023c0.70656,0.62699 1.40513,1.28345 2.09345,1.96939c0.68832,0.68594 1.32536,1.4195 1.90997,2.20295c0.58348,0.78231 1.05869,1.70748 1.42564,2.77324c0.36696,1.06689 0.55043,2.22562 0.55043,3.47846c0,2.58617 -0.64387,4.57029 -1.93162,5.95238c-1.28775,1.38208 -3.10542,2.07369 -5.45299,2.07369c-2.34758,0 -4.21995,-0.69274 -5.61596,-2.07823c-1.39601,-1.38548 -2.09345,-3.37528 -2.09345,-5.96712"></path>
          <path id="Fill-4" d="m36.15943,16.11667l2.40342,0c0.82279,0 1.44045,-0.2313 1.85299,-0.69275c0.4114,-0.46145 0.61766,-1.24376 0.61766,-2.34694l0,-4.80385c0,-1.10318 -0.20626,-1.88095 -0.61766,-2.3356c-0.41254,-0.45465 -1.0302,-0.68141 -1.85299,-0.68141l-2.40342,0l0,10.86055zm-5.05413,16.60317l0,-32.04422l7.44615,0c5.02336,0 7.53619,2.6474 7.53619,7.94105l0,4.16213c0,5.27891 -2.51055,7.9195 -7.53049,7.9195l-2.39772,0l0,12.02154l-5.05413,0z"></path>
          <path id="Fill-6" d="m53.4996,15.11111l1.97607,0c1.0188,0 1.77892,-0.26077 2.28034,-0.78231c0.50143,-0.52154 0.75214,-1.39229 0.75214,-2.61451l0,-3.1508c0.01481,-2.20408 -0.83875,-3.30725 -2.56069,-3.30725l-2.44786,0l0,9.85487zm-5.05413,17.60884l0,-32.04535l7.62621,0c2.60057,0 4.50029,0.60431 5.69573,1.81179c1.19658,1.20749 1.79487,3.0635 1.79487,5.56803l0,2.52608c0,3.29478 -1.10313,5.46372 -3.3094,6.5068c2.23589,0.93991 3.35384,3.21315 3.35384,6.82086l0,4.93084l0,0.20068c0,1.63606 0.18006,2.86281 0.53904,3.68027l-5.12365,0c-0.29744,-0.90702 -0.45356,-2.21541 -0.46838,-3.9263l0,-5.01927c0,-1.45692 -0.25869,-2.50227 -0.77493,-3.13379c-0.51738,-0.63265 -1.35954,-0.94785 -2.52763,-0.94785l-1.75157,0l0,13.02721l-5.05413,0z"></path>
          <polygon points="66.93162536621094,32.72018051147461 71.98575592041016,32.72018051147461 71.98575592041016,0.6748314499855042 66.93162536621094,0.6748314499855042 " id="Fill-8"></polygon>
          <path id="Fill-10" d="m80.72274,28.13923l2.898,0c0.88319,0 1.54188,-0.23469 1.97607,-0.70408c0.43419,-0.46939 0.65185,-1.28458 0.65185,-2.44671l0,-2.79366c0,-1.46031 -0.25071,-2.47278 -0.75328,-3.03854c-0.50142,-0.5669 -1.33561,-0.84921 -2.5037,-0.84921l-2.26894,0l0,9.8322zm0,-14.41383l1.98518,0c1.02222,0 1.78576,-0.26077 2.28946,-0.78232c0.50484,-0.52154 0.75669,-1.38548 0.75669,-2.59183l0,-1.78798c0.01482,-2.20409 -0.84216,-3.30726 -2.57208,-3.30726l-2.45925,0l0,8.46939zm-5.05414,18.99546l0,-32.04535l7.63761,0c2.60513,0 4.50712,0.60317 5.70484,1.80952c1.19772,1.20635 1.79716,3.06123 1.79716,5.56463l0,1.13946c0,3.29251 -1.09288,5.44557 -3.27978,6.45805c2.51624,0.98299 3.77322,3.27097 3.77322,6.86054l0,2.61451c0,2.47279 -0.65071,4.35828 -1.95327,5.6542c-1.30371,1.29592 -3.21254,1.94444 -5.72764,1.94444l-7.95214,0z"></path>
          <polygon points="94.33435821533203,32.72029495239258 94.33435821533203,0.6749420166015625 108.12580871582031,0.6749420166015625 108.12580871582031,5.2565765380859375 99.38848876953125,5.2565765380859375 99.38848876953125,14.172676086425781 106.32865905761719,14.172676086425781 106.32865905761719,18.753173828125 99.38848876953125,18.753173828125 99.38848876953125,28.138662338256836 108.12580871582031,28.138662338256836 108.12580871582031,32.72029495239258 " id="Fill-11"></polygon>
          <polygon points="13,39.24512481689453 108.19657897949219,39.24512481689453 108.19657897949219,34.796146392822266 13,34.796146392822266 " id="Fill-12"></polygon>
        </g>
      </g>
    </g>
  </g>
</svg>
