<svg width="100" height="100" viewBox="0 0 100 100" fill="none" xmlns="http://www.w3.org/2000/svg">
<path d="M59.1627 50.0007L98.1015 11.0608C100.636 8.52787 100.636 4.43255 98.1015 1.89966C95.5686 -0.633221 91.4733 -0.633221 88.9404 1.89966L50.0004 40.8396L11.0616 1.89966C8.52758 -0.633221 4.43344 -0.633221 1.90055 1.89966C-0.633518 4.43255 -0.633518 8.52787 1.90055 11.0608L40.8394 50.0007L1.90055 88.9407C-0.633518 91.4736 -0.633518 95.5689 1.90055 98.1018C3.16284 99.3653 4.82256 100 6.4811 100C8.13963 100 9.79817 99.3653 11.0616 98.1018L50.0004 59.1618L88.9404 98.1018C90.2039 99.3653 91.8624 100 93.521 100C95.1795 100 96.838 99.3653 98.1015 98.1018C100.636 95.5689 100.636 91.4736 98.1015 88.9407L59.1627 50.0007Z" fill="#293047"/>
</svg>
