<svg width="125" height="100" viewBox="0 0 125 100" fill="none" xmlns="http://www.w3.org/2000/svg">
<path d="M116.667 16.6667H8.33333C3.73125 16.6667 0 12.9354 0 8.33333C0 3.73125 3.73125 0 8.33333 0H116.667C121.269 0 125 3.73125 125 8.33333C125 12.9354 121.269 16.6667 116.667 16.6667Z" fill="#293047"/>
<path d="M116.667 99.9987H8.33333C3.73125 99.9987 0 96.2674 0 91.6654C0 87.0633 3.73125 83.332 8.33333 83.332H116.667C121.269 83.332 125 87.0633 125 91.6654C125 96.2674 121.269 99.9987 116.667 99.9987Z" fill="#293047"/>
<path d="M116.667 58.3346H8.33333C3.73125 58.3346 0 54.6034 0 50.0013C0 45.3992 3.73125 41.668 8.33333 41.668H116.667C121.269 41.668 125 45.3992 125 50.0013C125 54.6034 121.269 58.3346 116.667 58.3346Z" fill="#293047"/>
</svg>
