<?xml version="1.0" encoding="UTF-8"?>
<svg xmlns="http://www.w3.org/2000/svg" height="512pt" viewBox="-31 0 512 512" width="512pt">
  <path d="m124.886719 301-31.203125-30h-22.390625l-71.292969 68.613281v172.386719h93.273438l31.171874-30-33.859374-90.972656zm0 0" fill="#ede9e8"></path>
  <path d="m381.210938 271h-24.898438l-31.199219 30 34.300781 90.027344-33.859374 90.972656 31.171874 30h93.273438v-172.210938zm0 0" fill="#dfd7d5"></path>
  <path d="m390.601562 391-33.902343 121h-263.398438l-33.902343-121 34.203124-120h262.796876zm0 0" fill="#ff6c6c"></path>
  <path d="m390.601562 391-33.902343 121h-131.699219v-241h131.398438zm0 0" fill="#ff193d"></path>
  <path d="m330 75v121c0 57.898438-47.101562 105-105 105s-105-47.101562-105-105v-107.199219l105-21 99.902344-20.101562c3.296875 8.402343 5.097656 17.699219 5.097656 27.300781zm0 0" fill="#fed2a4"></path>
  <path d="m330 75v121c0 57.898438-47.101562 105-105 105v-233.199219l99.902344-20.101562c3.296875 8.402343 5.097656 17.699219 5.097656 27.300781zm0 0" fill="#ffbd86"></path>
  <path d="m285.300781 6.300781c-9-3.902343-19.5-6.300781-30.300781-6.300781h-165v15c0 25.800781 10.199219 53.699219 30 73.5v.296875c19.199219 19.503906 45.902344 31.203125 75 31.203125h30c43.199219 0 81.597656-26.101562 97.5-66.300781l2.402344-6c-2.101563-3-10.203125-29.097657-39.601563-41.398438zm0 0" fill="#5a5a5a"></path>
  <path d="m324.902344 47.699219-2.402344 6c-15.902344 40.199219-54.300781 66.300781-97.5 66.300781v-120h30c10.800781 0 21.300781 2.398438 30.300781 6.300781 29.398438 12.300781 37.5 38.398438 39.601563 41.398438zm0 0" fill="#444"></path>
  <path d="m270 196c0 24.898438-20.097656 45-45 45s-45-20.101562-45-45h30c0 8.398438 6.597656 15 15 15s15-6.601562 15-15zm0 0" fill="#f6a96c"></path>
  <path d="m225 241v-30c8.402344 0 15-6.601562 15-15h30c0 24.898438-20.097656 45-45 45zm0 0" fill="#ea9b58"></path>
  <path d="m225 329.199219-75-37.5v108.601562l75-37.5 75 37.5v-108.601562zm0 0" fill="#5a5a5a"></path>
  <path d="m225 329.199219 75-37.5v108.601562l-75-37.5zm0 0" fill="#444"></path>
</svg>
