<?xml version="1.0" encoding="UTF-8"?>
<svg xmlns="http://www.w3.org/2000/svg" height="512pt" viewBox="-40 0 512 512" width="512pt">
  <path d="m216.300781 0c-24.902343 0-45 20.097656-45 45 0 24.898438 20.097657 45 45 45 24.902344 0 45-20.101562 45-45 0-24.902344-20.097656-45-45-45zm0 0" fill="#ffe470"></path>
  <path d="m216.300781 90v-90c24.902344 0 45 20.097656 45 45 0 24.898438-20.097656 45-45 45zm0 0" fill="#ffd400"></path>
  <path d="m379.800781 392-163.5 30-163.5-30c18.300781-29.699219 28.5-65.898438 28.5-101.902344v-95.097656c0-74.699219 60.300781-135 135-135s135 60.300781 135 135v95.097656c0 36.003906 10.203125 72.203125 28.5 101.902344zm0 0" fill="#ffd400"></path>
  <path d="m379.800781 392-163.5 30v-362c74.699219 0 135 60.300781 135 135v95.097656c0 36.003906 10.203125 72.203125 28.5 101.902344zm0 0" fill="#fdbf00"></path>
  <path d="m276.300781 452c0 33-27 60-60 60s-60-27-60-60c0-6.902344 1.199219-13.5 3.300781-20.101562h113.398438c2.101562 6.601562 3.300781 13.199218 3.300781 20.101562zm0 0" fill="#ffd400"></path>
  <path d="m291.300781 195h-30c0-24.902344-20.097656-45-45-45-24.902343 0-45 20.097656-45 45h-30c0-41.398438 33.601563-75 75-75 41.398438 0 75 33.601562 75 75zm0 0" fill="#ffe470"></path>
  <path d="m216.300781 150v-30c41.398438 0 75 33.601562 75 75h-30c0-24.902344-20.097656-45-45-45zm0 0" fill="#ffd400"></path>
  <path d="m276.300781 452c0 33-27 60-60 60v-80.101562h56.699219c2.101562 6.601562 3.300781 13.199218 3.300781 20.101562zm0 0" fill="#fdbf00"></path>
  <path d="m432.601562 452h-432.601562l25.800781-25.5c10.5-10.5 19.199219-22.199219 27-34.5h327c7.800781 12.300781 16.5 24 27 34.5zm0 0" fill="#ffe470"></path>
  <path d="m432.601562 452h-216.300781v-60h163.5c7.800781 12.300781 16.5 24 27 34.5zm0 0" fill="#ffd400"></path>
</svg>
