<?xml version="1.0" encoding="UTF-8"?>
<svg xmlns="http://www.w3.org/2000/svg" height="512pt" viewBox="-31 0 512 512" width="512pt">
  <path d="m450 286c0 124.199219-100.800781 226-225 226s-225-101.800781-225-226 100.800781-225 225-225 225 100.800781 225 225zm0 0" fill="#b35f49"></path>
  <path d="m450 286c0 124.199219-100.800781 226-225 226v-451c124.199219 0 225 100.800781 225 225zm0 0" fill="#99503d"></path>
  <path d="m225 196 30-38.75-30-36.25c-45.492188 0-86.742188 18.503906-116.617188 48.382812l-3.382812 56.617188 56.390625-3.609375c16.296875-16.296875 38.796875-26.390625 63.609375-26.390625zm0 0" fill="#ff6c6c"></path>
  <path d="m225 196c24.8125 0 47.3125 10.09375 63.609375 26.390625.097656.09375.167969.21875.261719.316406l56.273437 3.4375-3.527343-56.761719c-29.875-29.878906-71.125-48.382812-116.617188-48.382812zm0 0" fill="#444"></path>
  <path d="m315 286 38.125 30 36.875-30c0-45.492188-18.503906-86.742188-48.382812-116.617188l-52.746094 53.324219c16.128906 16.273438 26.128906 38.625 26.128906 63.292969zm0 0" fill="#ff4949"></path>
  <path d="m288.609375 349.609375-3.609375 56.390625 56.617188-3.382812c29.878906-29.875 48.382812-71.125 48.382812-116.617188h-75c0 24.8125-10.09375 47.3125-26.390625 63.609375zm0 0" fill="#444"></path>
  <path d="m225 376-30 40 30 35c45.492188 0 86.742188-18.503906 116.617188-48.382812l-53.007813-53.007813c-16.296875 16.296875-38.796875 26.390625-63.609375 26.390625zm0 0" fill="#ff4949"></path>
  <path d="m225 376c-24.8125 0-47.3125-10.09375-63.609375-26.390625l-51.210937-8.789063-1.796876 61.796876c29.875 29.878906 71.125 48.382812 116.617188 48.382812zm0 0" fill="#5a5a5a"></path>
  <path d="m161.390625 349.609375c-16.296875-16.296875-26.390625-38.796875-26.390625-63.609375l-26.617188-30-48.382812 30c0 45.492188 18.503906 86.742188 48.382812 116.617188zm0 0" fill="#ff6c6c"></path>
  <path d="m300 0-75 151-75-151zm0 0" fill="#ffd400"></path>
  <path d="m161.390625 222.390625-53.007813-53.007813c-29.878906 29.875-48.382812 71.125-48.382812 116.617188h75c0-24.8125 10.09375-47.3125 26.390625-63.609375zm0 0" fill="#5a5a5a"></path>
  <path d="m225 181c-57.898438 0-105 47.101562-105 105s47.101562 105 105 105 105-47.101562 105-105-47.101562-105-105-105zm0 0" fill="#ffd400"></path>
  <path d="m300 0-75 151v-151zm0 0" fill="#fdbf00"></path>
  <path d="m330 286c0 57.898438-47.101562 105-105 105v-210c57.898438 0 105 47.101562 105 105zm0 0" fill="#fdbf00"></path>
  <path d="m270 271v30h-30v30h-30v-30h-30v-30h30v-30h30v30zm0 0" fill="#6e6e6e"></path>
  <path d="m270 271v30h-30v30h-15v-90h15v30zm0 0" fill="#5a5a5a"></path>
</svg>
