<?xml version="1.0" encoding="UTF-8"?>
<svg xmlns="http://www.w3.org/2000/svg" height="512pt" viewBox="0 -16 512 512" width="512pt">
  <path d="m512 350.699219-185.5 129.300781h-145.5l-121-60-30-90 30-90h121l90 60h75v60h-135v30h139.199219l127.300781-88.5zm0 0" fill="#fed2a4"></path>
  <path d="m0 240h60v180h-60zm0 0" fill="#ff6c6c"></path>
  <path d="m316 0 30 39.601562-30 35.398438c-16.5 0-31.5 6.597656-42.300781 17.699219l-54.261719 5.738281 1.164062-58.835938c24.296876-24.601562 58.199219-39.601562 95.398438-39.601562zm0 0" fill="#ff6c6c"></path>
  <path d="m411.398438 39.601562 9.601562 50.398438-62.699219 2.699219c-10.800781-11.101563-25.800781-17.699219-42.300781-17.699219v-75c37.199219 0 71.101562 15 95.398438 39.601562zm0 0" fill="#5a5a5a"></path>
  <path d="m376 135 45 30 30-30c0-37.199219-15-71.101562-39.601562-95.398438l-53.097657 53.097657c11.101563 10.800781 17.699219 25.800781 17.699219 42.300781zm0 0" fill="#ff4949"></path>
  <path d="m358.300781 177.300781-4.148437 25.851563 57.246094 27.246094c24.601562-24.296876 39.601562-58.199219 39.601562-95.398438h-75c0 16.5-6.597656 31.5-17.699219 42.300781zm0 0" fill="#5a5a5a"></path>
  <path d="m316 195-30 45 30 30c37.199219 0 71.101562-15 95.398438-39.601562l-53.097657-53.097657c-10.800781 11.097657-25.800781 17.699219-42.300781 17.699219zm0 0" fill="#ff4949"></path>
  <path d="m316 195c-16.5 0-31.5-6.601562-42.300781-17.699219l-25.851563-4.148437-27.246094 57.246094c24.296876 24.601562 58.199219 39.601562 95.398438 39.601562zm0 0" fill="#5a5a5a"></path>
  <path d="m273.699219 177.300781c-11.101563-10.800781-17.699219-25.800781-17.699219-42.300781l-35.398438-30-39.601562 30c0 37.199219 15 71.101562 39.601562 95.398438zm0 0" fill="#ff6c6c"></path>
  <path d="m273.699219 92.699219-53.097657-53.097657c-24.601562 24.296876-39.601562 58.199219-39.601562 95.398438h75c0-16.5 6.597656-31.5 17.699219-42.300781zm0 0" fill="#5a5a5a"></path>
  <path d="m316 60c-41.398438 0-75 33.601562-75 75s33.601562 75 75 75 75-33.601562 75-75-33.601562-75-75-75zm0 0" fill="#ede9e8"></path>
  <path d="m391 135c0 41.398438-33.601562 75-75 75v-150c41.398438 0 75 33.601562 75 75zm0 0" fill="#dfd7d5"></path>
  <g fill="#ffbd86">
    <path d="m316 300h30v60h-30zm0 0"></path>
    <path d="m512 350.699219-185.5 129.300781h-10.5v-90h34.199219l127.300781-88.5zm0 0"></path>
  </g>
</svg>
