<?xml version="1.0" encoding="UTF-8"?>
<svg xmlns="http://www.w3.org/2000/svg" height="512pt" viewBox="0 -46 512 512" width="512pt">
  <path d="m512 60v300l-31 30h-450l-31-30v-300l31-30h450zm0 0" fill="#5a5a5a"></path>
  <path d="m512 60v300l-31 30h-225v-360h225zm0 0" fill="#444"></path>
  <path d="m181 90h150v240h-150zm0 0" fill="#ede9e8"></path>
  <path d="m256 90h75v240h-75zm0 0" fill="#dfd7d5"></path>
  <path d="m31 90h120v240h-120zm0 0" fill="#ede9e8"></path>
  <path d="m361 90h120v240h-120zm0 0" fill="#dfd7d5"></path>
  <path d="m106 285h-30v-17.578125c0-28.769531 10.867188-56.980469 30-78.382813v-9.039062h-30v15h-30v-45h90v51.210938l-4.394531 4.394531c-16.273438 16.273437-25.605469 38.804687-25.605469 61.816406zm0 0" fill="#ff6c6c"></path>
  <path d="m301 150v51.300781l-4.5 4.199219c-16.199219 16.5-25.5 39-25.5 61.800781v17.699219h-30v-17.699219c0-19.800781 5.398438-39.902343 15-57.300781 4.199219-7.5 9.300781-14.699219 15-21v-9h-30v15h-30v-45zm0 0" fill="#ff6c6c"></path>
  <path d="m436 285h-30v-17.578125c0-28.769531 10.867188-56.980469 30-78.382813v-9.039062h-30v15h-30v-45h90v51.210938l-4.394531 4.394531c-16.273438 16.273437-25.605469 38.804687-25.605469 61.816406zm0 0" fill="#ff4949"></path>
  <path d="m301 150v51.300781l-4.5 4.199219c-16.199219 16.5-25.5 39-25.5 61.800781v17.699219h-15v-75c4.199219-7.5 9.300781-14.699219 15-21v-9h-15v-30zm0 0" fill="#ff4949"></path>
  <path d="m0 360h512v60h-512zm0 0" fill="#ff6c6c"></path>
  <path d="m256 360h256v60h-256zm0 0" fill="#ff4949"></path>
  <path d="m0 0h512v60h-512zm0 0" fill="#ff6c6c"></path>
  <path d="m256 0h256v60h-256zm0 0" fill="#ff4949"></path>
</svg>
