<?xml version="1.0" encoding="UTF-8"?>
<svg xmlns="http://www.w3.org/2000/svg" height="512pt" viewBox="-76 0 512 512" width="512pt">
  <path d="m360 91v330l-30 30h-300l-30-30v-330l30-30h300zm0 0" fill="#5a5a5a"></path>
  <path d="m360 91v330l-30 30h-150v-390h150zm0 0" fill="#444"></path>
  <path d="m30 61h300v390h-300zm0 0" fill="#ffe470"></path>
  <path d="m180 61h150v390h-150zm0 0" fill="#ffd400"></path>
  <path d="m230.097656 376h-101.398437l23.101562-69.300781h55.199219zm0 0" fill="#5a5a5a"></path>
  <path d="m230.097656 376h-50.097656v-69.300781h27zm0 0" fill="#444"></path>
  <path d="m0 0h360v91h-360zm0 0" fill="#5a5a5a"></path>
  <path d="m0 421h360v91h-360zm0 0" fill="#5a5a5a"></path>
  <path d="m180 0h180v91h-180zm0 0" fill="#444"></path>
  <path d="m180 421h180v91h-180zm0 0" fill="#444"></path>
  <path d="m180 131.800781c-.300781-.300781-.300781-.300781-.601562-.601562l-9.898438 8.402343c-60 52.199219-108.898438 84.296876-108.898438 135 0 40.199219 29.398438 71.398438 66.898438 71.398438 20.699219 0 38.699219-9.601562 51.898438-27.597656.300781.296875.300781.296875.601562.597656 17.101562 22.800781 38.101562 27 51.300781 27 37.5 0 66.898438-31.199219 66.898438-71.398438 0-45.300781-49.199219-89.101562-118.199219-142.800781zm0 0" fill="#6e6e6e"></path>
  <path d="m298.199219 274.601562c0 40.199219-29.398438 71.398438-66.898438 71.398438-13.199219 0-34.199219-4.199219-51.300781-27v-187.199219c69 53.699219 118.199219 97.5 118.199219 142.800781zm0 0" fill="#5a5a5a"></path>
</svg>
