<?xml version="1.0" encoding="UTF-8"?>
<svg xmlns="http://www.w3.org/2000/svg" height="512pt" viewBox="0 0 512 512" width="512pt">
  <path d="m301 82.597656v46.800782l-81.597656 81.601562h-137.804688l-81.597656-81.601562v-46.800782l81.597656-82.597656h137.804688zm0 0" fill="#c1ffa1"></path>
  <path d="m301 82.597656v46.800782l-81.597656 81.601562h-68.402344v-211h68.402344zm0 0" fill="#90e36a"></path>
  <path d="m151 61c-33.601562 0-61 19.800781-61 45s27.398438 45 61 45 60-19.800781 60-45-26.398438-45-60-45zm0 0" fill="#70da40"></path>
  <path d="m90 31c0-10.984375-3.167969-22.144531-8.320312-31h-81.679688v82.679688c8.855469 5.152343 19.015625 8.320312 30 8.320312 33.136719 0 60-26.863281 60-60zm0 0" fill="#90e36a"></path>
  <path d="m271 91c10.984375 0 21.144531-3.167969 30-8.320312v-82.679688h-81.679688c-5.152343 8.855469-8.320312 20.015625-8.320312 31 0 33.136719 26.863281 60 60 60zm0 0" fill="#70da40"></path>
  <path d="m301 129.320312c-8.855469-5.152343-19.015625-8.320312-30-8.320312-33.136719 0-60 26.863281-60 60 0 10.984375 3.167969 21.144531 8.320312 30h81.679688zm0 0" fill="#70da40"></path>
  <path d="m30 121c-10.984375 0-21.144531 3.167969-30 8.320312v81.679688h81.679688c5.152343-8.855469 8.320312-19.015625 8.320312-30 0-33.136719-26.863281-60-60-60zm0 0" fill="#90e36a"></path>
  <path d="m211 106c0 25.199219-26.398438 45-60 45v-90c33.601562 0 60 19.800781 60 45zm0 0" fill="#56c225"></path>
  <path d="m376 241 30 39.601562-30 35.398438c-16.5 0-31.5 6.597656-42.300781 17.699219l-54.261719 5.738281 1.164062-58.835938c24.296876-24.601562 58.199219-39.601562 95.398438-39.601562zm0 0" fill="#ff6c6c"></path>
  <path d="m471.398438 280.601562 9.601562 50.398438-62.699219 2.699219c-10.800781-11.101563-25.800781-17.699219-42.300781-17.699219v-75c37.199219 0 71.101562 15 95.398438 39.601562zm0 0" fill="#5a5a5a"></path>
  <path d="m436 376 45 30 31-30c0-37.199219-16-71.101562-40.601562-95.398438l-53.097657 53.097657c11.101563 10.800781 17.699219 25.800781 17.699219 42.300781zm0 0" fill="#ff4949"></path>
  <path d="m418.300781 418.300781-4.148437 25.851563 57.246094 27.246094c24.601562-24.296876 40.601562-58.199219 40.601562-95.398438h-76c0 16.5-6.597656 31.5-17.699219 42.300781zm0 0" fill="#5a5a5a"></path>
  <path d="m376 436-30 45 30 31c37.199219 0 71.101562-16 95.398438-40.601562l-53.097657-53.097657c-10.800781 11.097657-25.800781 17.699219-42.300781 17.699219zm0 0" fill="#ff4949"></path>
  <path d="m376 436c-16.5 0-31.5-6.601562-42.300781-17.699219l-25.851563-4.148437-27.246094 57.246094c24.296876 24.601562 58.199219 40.601562 95.398438 40.601562zm0 0" fill="#5a5a5a"></path>
  <path d="m333.699219 418.300781c-11.101563-10.800781-17.699219-25.800781-17.699219-42.300781l-35.398438-30-39.601562 30c0 37.199219 15 71.101562 39.601562 95.398438zm0 0" fill="#ff6c6c"></path>
  <path d="m333.699219 333.699219-53.097657-53.097657c-24.601562 24.296876-39.601562 58.199219-39.601562 95.398438h75c0-16.5 6.597656-31.5 17.699219-42.300781zm0 0" fill="#5a5a5a"></path>
  <path d="m376 301c-41.398438 0-75 33.601562-75 75s33.601562 75 75 75 75-33.601562 75-75-33.601562-75-75-75zm0 0" fill="#ede9e8"></path>
  <path d="m451 376c0 41.398438-33.601562 75-75 75v-150c41.398438 0 75 33.601562 75 75zm0 0" fill="#dfd7d5"></path>
  <path d="m211 406-60 39.898438-30 20.101562v-30h-16c-57.898438 0-105-47.101562-105-105v-30h30c0 41.398438 33.601562 75 75 75h16v-30l30 20.097656zm0 0" fill="#5a5a5a"></path>
  <path d="m512 181v30h-31c0-41.398438-33.601562-75-75-75h-15v30l-15-9.902344-75-50.097656 75-50.101562 15-9.898438v30h15c57.898438 0 106 47.101562 106 105zm0 0" fill="#5a5a5a"></path>
  <g fill="#444">
    <path d="m512 181v30h-31c0-41.398438-33.601562-75-75-75h-15v30l-15-9.902344v-100.199218l15-9.898438v30h15c57.898438 0 106 47.101562 106 105zm0 0"></path>
    <path d="m211 406-60 39.898438v-79.800782zm0 0"></path>
  </g>
</svg>
