<?xml version="1.0" encoding="UTF-8"?>
<svg xmlns="http://www.w3.org/2000/svg" height="512pt" viewBox="0 0 512 512" width="512pt">
  <path d="m512 192.398438v192.699218l-91 60h-330l-91-60v-192.699218l65.800781-129.296876 115.199219-28.800781 75 68.097657 75-68.097657 115.199219 28.800781zm0 0" fill="#ede9e8"></path>
  <path d="m512 192.398438v192.699218l-91 60h-165v-342.699218l75-68.097657 115.199219 28.800781zm0 0" fill="#d2c5c2"></path>
  <path d="m421 512h-330l165-165zm0 0" fill="#5a5a5a"></path>
  <path d="m421 512h-165v-165zm0 0" fill="#444"></path>
  <path d="m421 91v421c-91.199219 0-165-73.800781-165-165 0 91.199219-73.800781 165-165 165v-421zm0 0" fill="#ede9e8"></path>
  <path d="m421 91v421c-91.199219 0-165-73.800781-165-165v-256zm0 0" fill="#d2c5c2"></path>
  <path d="m331 111.699219v108.601562l-75-37.5-75 37.5v-108.601562l75 37.5zm0 0" fill="#5a5a5a"></path>
  <g fill="#444">
    <path d="m301 241h30v30h-30zm0 0"></path>
    <path d="m301 302h30v30h-30zm0 0"></path>
    <path d="m301 362h30v30h-30zm0 0"></path>
    <path d="m331 220.300781-75-37.5v-33.601562l75-37.5zm0 0"></path>
  </g>
  <path d="m331 0v34.300781l-75 98.097657-75-98.097657v-34.300781zm0 0" fill="#5a5a5a"></path>
  <path d="m331 34.300781-75 98.097657v-132.398438h75zm0 0" fill="#444"></path>
</svg>
