<?xml version="1.0" encoding="UTF-8"?>
<svg xmlns="http://www.w3.org/2000/svg" height="512pt" viewBox="0 -16 512 512" width="512pt">
  <path d="m512 0v330l-30 30h-452l-30-30v-330zm0 0" fill="#5a5a5a"></path>
  <path d="m512 0v330l-30 30h-226v-360zm0 0" fill="#444"></path>
  <path d="m330.097656 460.199219h-148.195312l30-90h88.195312zm0 0" fill="#d2c5c2"></path>
  <path d="m300.097656 370.199219 30 90h-74.097656v-90zm0 0" fill="#c4b3af"></path>
  <path d="m0 330h512v60h-512zm0 0" fill="#ede9e8"></path>
  <path d="m256 330h256v60h-256zm0 0" fill="#dfd7d5"></path>
  <path d="m30 30h452v270h-452zm0 0" fill="#ffe470"></path>
  <path d="m256 30h226v270h-226zm0 0" fill="#ffd400"></path>
  <path d="m271 150h60v30h-60zm0 0" fill="#444"></path>
  <path d="m271 210h60v30h-60zm0 0" fill="#444"></path>
  <path d="m151 450h210v30h-210zm0 0" fill="#ede9e8"></path>
  <path d="m256 450h105v30h-105zm0 0" fill="#dfd7d5"></path>
  <path d="m451 195c0 19.5-12.597656 36-30 42.300781v32.699219h-30v-32.699219c-17.402344-6.300781-30-22.800781-30-42.300781h30c0 8.402344 6.597656 15 15 15s15-6.597656 15-15-6.597656-15-15-15c-24.902344 0-45-20.097656-45-45 0-19.5 12.597656-36 30-42.300781v-32.699219h30v32.699219c17.402344 6.300781 30 22.800781 30 42.300781h-30c0-8.402344-6.597656-15-15-15s-15 6.597656-15 15 6.597656 15 15 15c24.902344 0 45 20.097656 45 45zm0 0" fill="#b35f49"></path>
  <path d="m451 195c0 19.5-12.597656 36-30 42.300781v32.699219h-15v-60c8.402344 0 15-6.597656 15-15s-6.597656-15-15-15v-30c24.902344 0 45 20.097656 45 45zm0 0" fill="#99503d"></path>
  <path d="m406 120v-60h15v32.699219c17.402344 6.300781 30 22.800781 30 42.300781h-30c0-8.402344-6.597656-15-15-15zm0 0" fill="#99503d"></path>
  <path d="m241 270h-120v-150h120zm0 0" fill="#5a5a5a"></path>
  <path d="m181 210h-121v-150h121zm0 0" fill="#ff6c6c"></path>
</svg>
