<?xml version="1.0" encoding="UTF-8"?>
<svg xmlns="http://www.w3.org/2000/svg" width="106" height="51" viewBox="0 0 106 51" fill="none">
  <path d="M20.0865 20.3564L19.6552 22.1898C20.1944 22.2977 21.8121 22.8369 22.1356 21.7584C22.3513 20.7878 20.6258 20.4643 20.0865 20.3564Z" fill="#F7931A"></path>
  <path d="M19.4395 23.1602L18.9002 25.2092C19.5473 25.3171 21.4885 25.9641 21.8121 24.7778C22.1356 23.6994 20.0865 23.3758 19.4395 23.1602Z" fill="#F7931A"></path>
  <path d="M22.2434 14.856C17.6061 13.6697 12.9687 16.4736 11.7824 21.0031C10.5961 25.5326 13.4001 30.2778 17.9296 31.3563C22.4591 32.5426 27.2043 29.7386 28.2828 25.2091C29.5769 20.5718 26.7729 15.9344 22.2434 14.856ZM23.969 21.8659C23.969 22.513 23.4297 23.1601 22.7827 23.2679C23.6454 23.6993 24.0768 24.3463 23.6454 25.5326C23.1062 27.0425 21.9199 27.0425 20.3022 26.8268L19.8708 28.3366L18.9002 28.1209L19.3316 26.6111C19.1159 26.6111 18.7924 26.5033 18.5767 26.3954L18.1453 27.9052L17.1747 27.6896L17.6061 26.1797L16.959 26.0719L15.7727 25.7483L16.3119 24.6699C16.3119 24.6699 16.959 24.8856 16.959 24.7777C17.1747 24.7777 17.3904 24.7777 17.3904 24.562L18.0375 22.0816H18.1453L18.0375 21.9738L18.4689 20.2482C18.4689 20.0325 18.361 19.709 18.0375 19.709L17.3904 19.4933L17.6061 18.5227L18.9002 18.8462L19.4395 18.9541L19.8708 17.4442L20.8415 17.6599L20.4101 19.1698C20.6258 19.1698 20.9493 19.2776 21.165 19.3855L21.5964 17.8756L22.567 18.0913L22.1356 19.6012C23.214 20.1404 24.0768 20.7875 23.969 21.8659Z" fill="#F7931A"></path>
  <path d="M41.1164 21.0034C40.7929 20.572 40.3615 20.2485 39.8222 20.0328C39.1752 19.8171 38.6359 19.7092 37.9889 19.7092C37.6653 19.7092 37.3418 19.7092 37.0183 19.8171C36.6947 19.8171 36.479 19.9249 36.1555 20.1406L37.5575 14.4248L34.2143 14.964L30.4397 30.7094C30.8711 30.9251 31.3025 31.1408 31.7338 31.2487C32.2731 31.3565 32.7045 31.4644 33.1358 31.5722C33.5672 31.5722 33.8908 31.6801 34.2143 31.6801H34.8614C35.832 31.6801 36.8026 31.4644 37.6653 31.1408C38.5281 30.7094 39.283 30.2781 39.9301 29.631C40.5772 28.9839 41.1164 28.229 41.4399 27.3662C41.7635 26.5035 41.9792 25.5329 41.9792 24.5623C41.9792 24.023 41.8713 23.376 41.7635 22.7289C41.6556 21.974 41.4399 21.5426 41.1164 21.0034ZM38.8516 24.5623C38.8516 25.1015 38.7438 25.6407 38.5281 26.1799C38.3124 26.7192 38.0967 27.1506 37.7732 27.5819C37.4496 28.0133 37.0183 28.3368 36.5869 28.5525C36.1555 28.8761 35.6163 28.9839 35.1849 28.9839H34.8614C34.7535 28.9839 34.6457 28.9839 34.5378 28.9839C34.5378 28.9839 34.43 28.9839 34.3221 28.9839H34.1064L35.5084 23.0524C35.7241 22.8367 36.0477 22.621 36.3712 22.621C36.6947 22.621 36.9104 22.5132 37.234 22.5132C37.7732 22.5132 38.2046 22.621 38.5281 23.0524C38.7438 23.4838 38.9595 24.023 38.8516 24.5623Z" fill="#4D4D4D"></path>
  <path d="M49.4204 16.3662C49.4204 15.9348 49.3126 15.3956 48.8812 15.1799C48.5577 14.9642 48.1263 14.7485 47.6949 14.7485C47.3714 14.7485 47.1557 14.8564 46.8322 14.9642C46.6165 15.0721 46.2929 15.2878 46.1851 15.5035C45.9694 15.7191 45.7537 15.9348 45.6459 16.1505C45.538 16.4741 45.4302 16.6898 45.4302 17.0133C45.4302 17.5525 45.538 17.9839 45.9694 18.1996C46.2929 18.4153 46.7243 18.631 47.1557 18.631C47.4792 18.631 47.6949 18.5231 48.0185 18.4153C48.5577 18.1996 48.9891 17.7682 49.2048 17.229C49.3126 16.9054 49.4204 16.5819 49.4204 16.3662Z" fill="#4D4D4D"></path>
  <path d="M42.3027 31.3564H45.538L48.342 19.9248H45.1067L42.3027 31.3564Z" fill="#4D4D4D"></path>
  <path d="M52.9794 22.6209H56.5383L57.1853 19.9247H53.6264L54.4892 16.5815L51.146 17.1208L49.0969 26.1798C48.9891 26.8268 48.8812 27.5818 48.7734 28.2288C48.7734 28.7681 48.7734 29.4151 49.0969 29.9544C49.3126 30.4936 49.744 30.925 50.2832 31.1407C51.0382 31.4642 51.7931 31.6799 52.6558 31.572C53.3029 31.572 53.8421 31.572 54.4892 31.4642C55.0284 31.3563 55.4598 31.2485 55.8912 31.0328L55.6755 28.5524C55.352 28.6602 55.0284 28.7681 54.7049 28.7681C54.3814 28.7681 54.0578 28.8759 53.7343 28.8759C53.4107 28.8759 53.0872 28.8759 52.7637 28.6602C52.548 28.5524 52.3323 28.3367 52.2245 28.121C52.1166 27.9053 52.1166 27.5818 52.1166 27.3661C52.1166 27.0425 52.1166 26.719 52.2245 26.3955L52.9794 22.6209Z" fill="#4D4D4D"></path>
  <path d="M63.9796 22.2976C64.4109 22.2976 64.7345 22.2976 65.058 22.4055C65.3816 22.4055 65.7051 22.6212 66.0286 22.729L67.1071 20.2486C66.6757 20.0329 66.1365 19.8172 65.7051 19.7093C65.1659 19.6015 64.5188 19.4937 63.9796 19.4937C63.009 19.4937 62.0384 19.7093 61.1756 20.0329C60.3128 20.4643 59.6658 21.0035 59.0187 21.5427C58.4795 22.1898 57.9402 23.0525 57.6167 23.8075C57.2932 24.6702 57.0775 25.6408 57.0775 26.6114C57.0775 27.2585 57.1853 27.9056 57.5088 28.4448C57.7245 28.984 58.0481 29.5233 58.3716 29.9546C58.803 30.4939 59.3422 30.8174 59.8814 31.0331C60.6364 31.3566 61.3913 31.4645 62.1462 31.4645C62.6854 31.4645 63.3325 31.4645 63.8717 31.2488C64.3031 31.1409 64.7345 30.9253 65.1659 30.8174L64.9502 28.4448C64.6266 28.5527 64.3031 28.6605 63.9796 28.7683C63.5482 28.8762 63.1168 28.8762 62.7933 28.8762C61.9305 28.8762 61.2834 28.6605 61.0677 28.2291C60.7442 27.6899 60.5285 27.0428 60.5285 26.3958C60.5285 25.3173 60.7442 24.2388 61.4991 23.3761C62.0383 22.729 63.009 22.2976 63.9796 22.2976Z" fill="#4D4D4D"></path>
  <path d="M76.5975 21.0031C76.1661 20.5717 75.7347 20.2482 75.1955 20.0325C74.5484 19.8168 73.9013 19.709 73.1464 19.709C72.1758 19.709 71.2052 19.9247 70.4503 20.3561C69.6954 20.7874 68.9404 21.3267 68.4012 22.0816C67.862 22.7287 67.4306 23.5914 67.2149 24.4542C66.8914 25.3169 66.7835 26.1797 66.7835 27.0425C66.7835 27.6895 66.8914 28.3366 67.1071 28.9837C67.3228 29.5229 67.5385 29.9543 67.9698 30.4935C68.4012 30.9249 68.8326 31.2484 69.3718 31.4641C70.0189 31.6798 70.666 31.7877 71.4209 31.7877C72.3915 31.7877 73.3621 31.572 74.2249 31.1406C74.9798 30.7092 75.7347 30.17 76.2739 29.4151C76.8132 28.768 77.2445 27.9052 77.4602 27.0425C77.6759 26.1797 77.8916 25.3169 77.8916 24.4542C77.8916 23.8071 77.7838 23.16 77.5681 22.513C77.2445 21.9737 77.0288 21.4345 76.5975 21.0031ZM74.4406 24.6699C74.4406 25.2091 74.3327 25.6405 74.2249 26.0719C74.117 26.5032 73.9013 27.0425 73.6856 27.4738C73.4699 27.9052 73.1464 28.2288 72.715 28.5523C72.2837 28.768 71.8523 28.9837 71.4209 28.9837C70.8817 28.9837 70.4503 28.768 70.1267 28.3366C69.9111 27.7974 69.6954 27.2582 69.8032 26.6111C69.8032 26.0719 69.9111 25.6405 70.0189 25.2091C70.1267 24.6699 70.3424 24.2385 70.5581 23.8071C70.7738 23.3757 71.0974 23.0522 71.5287 22.8365C71.9601 22.6208 72.3915 22.4051 72.8229 22.4051C73.3621 22.2973 73.7935 22.513 74.0092 22.9443C74.3327 23.5914 74.5484 24.1306 74.4406 24.6699Z" fill="#4D4D4D"></path>
  <path d="M81.5584 18.1996C81.8819 18.4153 82.3133 18.631 82.7447 18.631C83.0682 18.631 83.2839 18.631 83.6074 18.4153C83.8231 18.3074 84.1466 18.0917 84.2545 17.876C84.3623 17.6604 84.6859 17.4447 84.7937 17.229C84.9016 16.9054 85.0094 16.6898 85.0094 16.3662C85.0094 15.9348 84.9016 15.3956 84.4702 15.1799C84.1466 14.9642 83.7153 14.7485 83.2839 14.7485C82.9603 14.7485 82.7447 14.8564 82.4211 14.9642C82.2054 15.0721 81.8819 15.2878 81.774 15.5035C81.5584 15.7191 81.3427 15.9348 81.2348 16.1505C81.127 16.4741 81.0191 16.6898 81.0191 17.0133C81.0191 17.4447 81.2348 17.876 81.5584 18.1996Z" fill="#4D4D4D"></path>
  <path d="M80.8035 19.9248L77.9995 31.3564H81.2348L84.0388 19.9248H80.8035Z" fill="#4D4D4D"></path>
  <path d="M94.3919 21.1114C93.7449 20.1408 92.5586 19.6016 90.8331 19.6016C90.2938 19.6016 89.8624 19.6016 89.2154 19.7094C88.784 19.7094 88.3526 19.8173 88.0291 19.9251C87.7055 19.9251 87.2742 20.0329 87.0585 20.1408C86.8428 20.2486 86.5192 20.3565 86.3036 20.3565L83.7153 31.2489H86.9506L88.9997 22.5134C89.4311 22.4055 89.8624 22.4055 90.2938 22.4055C90.6174 22.4055 90.9409 22.4055 91.2644 22.6212C91.4801 22.7291 91.588 23.0526 91.6958 23.2683C91.6958 23.5918 91.6958 23.9154 91.6958 24.2389C91.6958 24.5624 91.588 24.886 91.4801 25.3174L90.0781 31.3567H93.3135L94.8233 25.2095C95.1469 23.484 95.039 22.082 94.3919 21.1114Z" fill="#4D4D4D"></path>
</svg>
