<?xml version="1.0" encoding="UTF-8"?>
<svg xmlns="http://www.w3.org/2000/svg" width="268" height="50" viewBox="0 0 268 50" fill="none">
  <path d="M140.752 37.0079C141.021 37.0079 141.297 37 141.569 36.9921C141.834 36.9845 142.094 36.9769 142.339 36.9769L142.544 36.951C142.972 36.8969 143.394 36.8435 143.769 36.7901L143.956 36.7591V21.8993C143.956 20.4382 143.551 19.2879 142.774 18.4174C141.966 17.5469 140.908 17.1123 139.54 17.1123H138.7C138.261 17.1123 137.767 17.1397 137.244 17.1688L137.145 17.1743C136.899 17.1879 136.64 17.2075 136.373 17.2279C136.033 17.2538 135.677 17.2808 135.31 17.2982H135.155L135.124 17.4541C134.938 18.0757 134.875 18.7913 134.875 19.6618C134.875 20.5322 134.968 21.2467 135.124 21.7445L135.155 21.8993H135.902C137.332 21.8993 137.486 23.0186 137.486 23.8891V36.7282L137.674 36.7591C138.156 36.8573 138.645 36.9194 139.136 36.9449C139.665 37.0079 140.194 37.0079 140.752 37.0079Z" fill="#222222"></path>
  <path d="M136.927 14.4083C137.58 14.7809 138.544 14.9989 139.789 14.9989C141.033 14.9989 142.027 14.8119 142.805 14.4392L142.868 14.4083L142.899 14.3452C143.21 13.6307 143.365 12.8531 143.365 12.0457C143.369 11.255 143.211 10.4717 142.899 9.74512L142.868 9.68318L142.805 9.65111C142.09 9.21644 141.126 8.99854 139.882 8.99854C138.7 8.99854 137.705 9.18546 136.927 9.62014L136.866 9.65111L136.834 9.71416C136.523 10.4287 136.368 11.2062 136.368 12.0136C136.363 12.8045 136.522 13.5876 136.834 14.3142L136.866 14.3773L136.927 14.4083Z" fill="#222222"></path>
  <path d="M126.074 37.3497C123.432 37.3497 120.975 36.7281 118.736 35.4529L118.611 35.3909V35.267C118.642 34.5824 118.829 33.8059 119.14 32.9974C119.451 32.1889 119.856 31.5363 120.322 31.0386L120.446 30.9147L120.601 30.9767C122.592 32.034 124.365 32.5617 125.826 32.5617C126.478 32.5617 127.007 32.4687 127.35 32.2508C127.661 32.034 127.816 31.7852 127.816 31.4743C127.816 30.8218 127.287 30.3241 126.199 29.9823L124.085 29.1737C120.819 27.9925 119.171 25.9718 119.171 23.2365C119.171 21.2467 119.887 19.6297 121.255 18.4484C122.623 17.2672 124.489 16.7075 126.822 16.7075C127.972 16.7075 129.216 16.8634 130.584 17.2052C131.953 17.5161 133.072 17.9208 133.973 18.3554L134.098 18.4174V18.5424C134.16 19.2879 134.005 20.0964 133.662 20.9979C133.321 21.8684 132.884 22.5209 132.356 22.9257L132.264 22.9876L132.139 22.9257C130.055 21.9922 128.283 21.4956 126.883 21.4956C126.417 21.4956 126.075 21.5885 125.857 21.7754C125.639 21.9612 125.546 22.1791 125.546 22.49C125.546 22.9876 125.982 23.4223 126.853 23.7331L129.216 24.5726C132.699 25.7848 134.44 27.9306 134.44 30.9457C134.44 32.9354 133.693 34.4895 132.264 35.6707C130.77 36.7591 128.718 37.3497 126.074 37.3497Z" fill="#222222"></path>
  <path d="M88.0732 37.3499C86.0823 37.3499 84.3723 36.9771 83.0041 36.1996C81.6623 35.4464 80.513 34.3929 79.6462 33.1215C78.8056 31.8473 78.184 30.3862 77.8101 28.7382C77.4334 27.0548 77.2461 25.3345 77.2516 23.6095C77.2516 21.3088 77.5315 19.2571 78.1221 17.5162C78.7127 15.7753 79.4902 14.3142 80.4857 13.133C81.4427 11.9852 82.6573 11.0798 84.0306 10.4906C85.3689 9.89996 86.8289 9.62012 88.353 9.62012C89.9082 9.62012 91.3073 9.83801 92.5826 10.2417C93.8579 10.6465 94.9462 11.2372 95.8477 11.9826C96.7502 12.6982 97.4338 13.5997 97.9315 14.5941C98.4291 15.5895 98.6471 16.6768 98.6471 17.827C98.6471 20.2206 97.4028 21.4648 94.9462 21.4648C94.2306 21.4648 93.453 21.3398 92.5516 21.1219L92.3968 21.0909V20.4693C92.3968 16.8017 91.0894 15.0298 88.415 15.0298C86.8919 15.0298 85.8037 15.7134 85.1499 17.0815C84.4663 18.5117 84.0926 20.6563 84.0926 23.4535C84.0926 26.2208 84.5283 28.3035 85.3988 29.6397C86.2704 30.9769 87.4516 31.5985 89.1306 31.5985C90.0011 31.5985 90.9655 31.3806 92.0229 30.9769C93.0804 30.5731 94.2616 29.8885 95.5058 28.987L95.6298 28.8942L95.7548 28.987C96.4073 29.4229 97.03 30.0445 97.5896 30.822C98.1494 31.5985 98.4911 32.3451 98.6471 33.0596V33.1846L98.553 33.2774C97.9107 33.8798 97.2134 34.4208 96.4704 34.8934C95.6928 35.3912 94.8223 35.8269 93.8888 36.1996C92.9863 36.5414 92.0229 36.8521 91.0274 37.0701C90.0951 37.2249 89.0674 37.3499 88.0732 37.3499Z" fill="#222222"></path>
  <path fill-rule="evenodd" clip-rule="evenodd" d="M103.404 36.8518C104.151 37.1937 105.053 37.3496 106.079 37.3496C108.007 37.3496 109.81 36.603 111.489 35.08C112.454 36.3232 113.884 36.9768 115.626 37.0078H115.688L115.75 36.9768C116.155 36.6971 116.559 36.1993 116.932 35.5777C117.305 34.9561 117.554 34.3655 117.679 33.8058L117.71 33.6499L117.585 33.5569C116.931 33.1212 116.621 32.3757 116.621 31.2563V23.4852C116.621 22.3029 116.404 21.3085 116.031 20.438C115.685 19.6217 115.152 18.8978 114.476 18.3244C113.822 17.7647 113.077 17.3921 112.205 17.1122C111.351 16.8367 110.459 16.7 109.562 16.7073C108.865 16.7072 108.17 16.749 107.479 16.8323C106.697 16.9288 105.919 17.053 105.146 17.2051C104.932 17.2545 104.721 17.3017 104.511 17.3485C103.928 17.4784 103.362 17.6045 102.813 17.7647C102.067 17.9517 101.352 18.1684 100.761 18.4173L100.606 18.4793V18.6662C100.793 20.594 101.29 22.0241 102.098 22.9566L102.192 23.0805L102.316 23.0495C104.959 22.241 106.825 21.8062 107.882 21.8062C109.438 21.8062 110.153 22.5207 110.153 24.0128V24.5106C110.02 24.5106 109.88 24.5035 109.733 24.4962C109.571 24.4882 109.4 24.4796 109.22 24.4796H107.665C106.644 24.4779 105.628 24.6244 104.65 24.9143C103.745 25.1738 102.9 25.6069 102.161 26.1895C101.437 26.7595 100.862 27.4951 100.482 28.3341C100.077 29.2046 99.8592 30.199 99.8592 31.3183C99.8516 32.0934 99.9885 32.863 100.263 33.5879C100.517 34.3069 100.92 34.964 101.446 35.5157C101.994 36.0982 102.662 36.5541 103.404 36.8518ZM106.111 30.9456C106.111 29.4226 106.794 28.7069 108.287 28.7069C108.473 28.7069 108.722 28.7069 109.064 28.77C109.191 28.77 109.338 28.7763 109.498 28.7833C109.69 28.7917 109.901 28.801 110.122 28.801V31.5362C109.314 32.1888 108.567 32.5305 107.944 32.5305C106.701 32.5305 106.111 32.0339 106.111 30.9456Z" fill="#222222"></path>
  <path d="M161.682 37.0697C160.283 37.0697 159.318 36.728 158.789 36.0755C158.261 35.4217 158.012 34.4274 158.012 33.1533V25.0083C158.012 24.1688 157.92 23.5782 157.701 23.2054C157.515 22.8625 157.142 22.7077 156.551 22.7077C156.209 22.7077 155.805 22.8006 155.338 22.9875C154.901 23.1745 154.467 23.4852 153.97 23.858V36.6971L153.783 36.728C153.306 36.794 152.829 36.856 152.353 36.9138C151.326 36.9768 150.206 36.9768 149.181 36.9138C148.7 36.8885 148.221 36.8263 147.75 36.728L147.563 36.6971V17.3301L147.968 16.9252H150.3C151.855 16.9252 152.943 17.6408 153.534 19.071C155.276 17.6099 157.048 16.8633 158.759 16.8633C160.594 16.8633 162.023 17.5158 163.02 18.8222C163.983 20.0963 164.481 21.8062 164.481 23.889V31.7232C164.481 33.339 164.76 34.5823 165.351 35.3907L165.476 35.5467L165.32 35.6706C164.294 36.603 163.081 37.0697 161.682 37.0697Z" fill="#222222"></path>
  <path fill-rule="evenodd" clip-rule="evenodd" d="M172.037 36.6031C173.157 37.1008 174.432 37.3497 175.894 37.3497C177.355 37.3497 178.661 37.1008 179.781 36.6341C180.884 36.1734 181.864 35.4601 182.642 34.5514C183.42 33.65 184.01 32.5615 184.415 31.2874C184.788 30.0133 185.005 28.6141 185.005 27.0601C185.005 23.6092 184.04 20.905 182.175 19.039C180.589 17.4851 178.475 16.7075 175.894 16.7075C174.464 16.7075 173.157 16.9563 172.037 17.4541C170.943 17.9302 169.975 18.6537 169.207 19.5678C168.431 20.4691 167.839 21.5885 167.466 22.8317C167.062 24.0759 166.875 25.474 166.875 27.0291C166.871 28.449 167.07 29.862 167.466 31.2254C167.839 32.4997 168.431 33.588 169.207 34.4895C169.972 35.4061 170.942 36.1301 172.037 36.6031ZM174.711 21.9302C174.992 21.7124 175.397 21.5885 175.925 21.5885C176.889 21.5885 177.542 21.9922 177.883 22.8626C178.227 23.7641 178.412 25.1633 178.412 26.9661C178.412 28.738 178.227 30.1372 177.883 31.0696C177.572 31.9709 176.889 32.4068 175.862 32.4068C175.334 32.4068 174.929 32.2829 174.618 32.065C174.307 31.8472 174.059 31.4743 173.872 31.0076C173.686 30.5098 173.561 29.8573 173.499 29.1118C173.437 28.3342 173.406 27.4019 173.406 26.3445C173.414 25.7108 173.455 25.078 173.531 24.4487C173.623 23.8581 173.748 23.3603 173.934 22.9257C174.114 22.5385 174.379 22.1978 174.711 21.9302Z" fill="#222222"></path>
  <path fill-rule="evenodd" clip-rule="evenodd" d="M199.684 37.0078C198.906 37.0078 197.785 37.0078 196.262 36.9768C195.928 36.9699 195.573 36.9629 195.199 36.9556C193.904 36.93 192.378 36.9 190.665 36.8519H190.572L190.167 36.4482V10.5533L190.572 10.1485H190.665C191.35 10.134 192.055 10.1127 192.774 10.0909C193.59 10.0663 194.424 10.0411 195.267 10.0246C196.884 9.99365 198.563 9.99365 200.305 9.99365C202.482 9.99365 204.347 10.3354 205.841 11.0499C207.302 11.7346 208.515 12.7289 209.385 13.9411C210.256 15.1534 210.878 16.6145 211.251 18.2624C211.594 19.8784 211.811 21.6504 211.811 23.5162C211.811 26.0646 211.532 28.3341 210.941 30.2001C210.349 32.0958 209.168 33.7118 207.458 35.049C206.617 35.7326 205.497 36.2302 204.161 36.5411C202.793 36.8519 201.301 37.0078 199.684 37.0078ZM196.697 15.1844V31.8161C196.887 31.8161 197.089 31.8093 197.305 31.8021C197.551 31.7939 197.816 31.7851 198.097 31.7851H200.243C203.477 31.7851 205.063 29.0807 205.063 23.5162C205.063 17.9207 203.477 15.2154 200.243 15.2154H198.097C197.568 15.2154 197.102 15.2154 196.697 15.1844Z" fill="#222222"></path>
  <path fill-rule="evenodd" clip-rule="evenodd" d="M217.005 36.8518C217.751 37.1937 218.653 37.3496 219.679 37.3496C221.606 37.3496 223.379 36.603 225.089 35.08C226.054 36.3232 227.484 36.9768 229.227 37.0078H229.288L229.35 36.9768C229.755 36.6971 230.159 36.1993 230.533 35.5777C230.905 34.9561 231.154 34.3655 231.279 33.8058L231.31 33.6499L231.185 33.5569C230.533 33.1212 230.222 32.3757 230.222 31.2563V23.4852C230.222 22.3029 230.004 21.3085 229.631 20.438C229.284 19.6218 228.753 18.8979 228.076 18.3244C227.422 17.7647 226.676 17.3921 225.805 17.1122C224.951 16.8367 224.059 16.7 223.162 16.7073C222.466 16.7072 221.77 16.749 221.078 16.8323C220.333 16.9252 219.524 17.0502 218.746 17.2051C218.533 17.2545 218.321 17.3016 218.112 17.3483L218.111 17.3484C217.528 17.4783 216.962 17.6045 216.414 17.7647C215.667 17.9517 214.953 18.1684 214.361 18.4173L214.206 18.4793V18.6662C214.392 20.594 214.889 22.0551 215.698 22.9566L215.793 23.0805L215.916 23.0495C218.56 22.241 220.426 21.8062 221.483 21.8062C223.038 21.8062 223.753 22.5207 223.753 24.0128V24.5106C223.62 24.5106 223.479 24.5035 223.333 24.4962C223.171 24.4882 223 24.4796 222.82 24.4796H221.265C220.244 24.4778 219.228 24.6241 218.249 24.9143C217.345 25.1737 216.5 25.6068 215.761 26.1895C215.038 26.7595 214.461 27.4951 214.081 28.3341C213.677 29.2046 213.46 30.199 213.46 31.3183C213.451 32.0934 213.589 32.8633 213.865 33.5879C214.117 34.3069 214.52 34.9641 215.045 35.5157C215.594 36.0984 216.262 36.5544 217.005 36.8518ZM219.71 30.9456C219.71 29.4226 220.394 28.7069 221.887 28.7069C222.073 28.7069 222.322 28.7069 222.665 28.77C222.792 28.77 222.938 28.7763 223.098 28.7833C223.29 28.7917 223.501 28.801 223.722 28.801V31.5362C222.913 32.1888 222.166 32.5305 221.545 32.5305C220.301 32.5305 219.71 32.0339 219.71 30.9456Z" fill="#222222"></path>
  <path d="M236.378 45.121C234.824 45.121 233.238 44.8411 231.683 44.3445L231.557 44.3136V44.1576C231.496 43.4431 231.557 42.6345 231.806 41.7642C232.056 40.8937 232.399 40.1792 232.802 39.7123L232.895 39.6195L233.019 39.6505C234.102 40.0148 235.235 40.2037 236.378 40.2101C238.151 40.2101 239.331 39.2456 239.892 37.2879L239.955 37.039C237.81 36.9771 236.502 36.1066 236.067 34.4587L231.59 17.796L231.775 17.734C232.958 17.1744 234.108 16.8945 235.166 16.8945C236.223 16.8945 237.031 17.1125 237.529 17.5161C238.027 17.921 238.4 18.6355 238.649 19.6298L240.389 26.9662C240.577 27.6509 240.856 29.2978 241.261 31.8472L244.527 17.3304L244.65 17.2983C245.273 17.1125 246.144 17.0195 247.201 17.0195C248.381 17.0195 249.439 17.1744 250.341 17.4542L250.435 17.4851L250.745 18.0759L250.714 18.1687L246.018 36.1376C245.273 38.9039 244.246 41.0806 243.033 42.5726C241.572 44.2505 239.364 45.121 236.378 45.121Z" fill="#222222"></path>
  <path d="M250.871 35.4529C253.11 36.7281 255.566 37.3497 258.21 37.3497C260.852 37.3497 262.937 36.7591 264.398 35.6707C265.828 34.4895 266.574 32.9354 266.574 30.9457C266.574 27.9306 264.833 25.7848 261.35 24.5726L258.987 23.7331C258.116 23.4223 257.68 22.9876 257.68 22.49C257.68 22.1791 257.773 21.9612 257.991 21.7754C258.21 21.5885 258.551 21.4956 259.018 21.4956C260.417 21.4956 262.19 21.9922 264.273 22.9257L264.398 22.9876L264.49 22.9257C265.02 22.5209 265.455 21.8684 265.796 20.9979C266.139 20.0964 266.294 19.2879 266.233 18.5424V18.4174L266.109 18.3554C265.206 17.9208 264.087 17.5161 262.718 17.2052C261.35 16.8634 260.106 16.7075 258.956 16.7075C256.623 16.7075 254.757 17.2672 253.389 18.4484C252.021 19.6297 251.305 21.2467 251.305 23.2365C251.305 25.9718 252.954 27.9925 256.22 29.1737L258.334 29.9823C259.422 30.3241 259.951 30.8218 259.951 31.4743C259.951 31.7852 259.795 32.034 259.484 32.2508C259.143 32.4687 258.613 32.5617 257.96 32.5617C256.499 32.5617 254.727 32.034 252.737 30.9767L252.58 30.9147L252.456 31.0386C251.99 31.5363 251.585 32.1889 251.274 32.9974C250.963 33.8059 250.777 34.5824 250.745 35.267V35.3909L250.871 35.4529Z" fill="#222222"></path>
  <path fill-rule="evenodd" clip-rule="evenodd" d="M24.2051 1.65251C24.0301 1.16718 23.6997 0.719868 22.7663 0.681152C10.5009 1.65251 0.839844 11.9123 0.839844 24.4266C0.839844 37.5811 11.5117 48.2494 24.6717 48.2494H35.2267C35.9845 48.0939 36.4704 47.6466 36.2762 46.5777L36.1013 45.9369C36.1013 45.9175 36.0819 45.8788 36.0819 45.8594C36.0425 45.7039 36.0037 45.5483 35.9651 45.4121L32.8547 33.8505C32.6023 33.3458 32.0389 33.0929 31.7471 33.0929C31.5915 33.0929 31.4359 33.0929 31.2998 33.0735H24.6717C19.909 33.0735 16.0408 29.2066 16.0408 24.4453C16.0408 19.6853 19.909 15.8185 24.6717 15.8185H26.1291C27.0237 15.7216 27.8596 15.1769 27.1012 12.379C27.0673 12.2286 27.0284 12.0794 26.9843 11.9317L24.2051 1.65251Z" fill="#544BC9"></path>
  <path fill-rule="evenodd" clip-rule="evenodd" d="M16.0215 25.1254V24.6982C16.1577 29.342 19.9671 33.0734 24.6517 33.0734H29.7643C30.5615 33.0928 31.2805 33.0928 31.5529 33.0928C32.2719 33.0928 32.6411 33.4619 32.8354 33.8891L35.9458 45.5289C35.9651 45.6451 36.0038 45.7619 36.0232 45.8787C36.0426 45.9174 36.0426 45.9562 36.0626 45.9948L36.1788 46.4228C36.4511 47.6271 36.0038 48.1132 35.2655 48.2881H33.1465C23.2525 45.2371 16.0215 36.0268 16.0215 25.1254Z" fill="url(#paint0_radial_89_834)" fill-opacity="0.7"></path>
  <path d="M16.0216 24.6981L16.7212 24.6787H15.3413L16.0216 24.6981ZM32.6218 33.0538L33.2828 32.879L33.1466 32.3736H32.6218V33.0538ZM36.7036 48.2492V48.9482H37.5983L37.3645 48.0743L36.7036 48.2492ZM33.1659 48.2492L32.9717 48.9094L33.0691 48.9482H33.1659V48.2492ZM15.3413 24.6787V25.126H16.7212V24.6981L15.3413 24.6787ZM24.6518 32.3736C20.337 32.3736 16.838 28.9533 16.7212 24.6787L15.3413 24.7174C15.4968 29.7311 19.598 33.7535 24.6518 33.7535V32.3736ZM32.6218 32.3736H24.6518V33.7535L32.6218 33.7529V32.3736ZM37.3645 48.0743L33.3022 32.8782L31.9608 33.2287L36.0233 48.4242L37.3645 48.0743ZM33.1659 48.9482H36.7036V47.569H33.1659V48.9482ZM15.3413 25.126C15.3413 36.3379 22.7664 45.8198 32.9717 48.9094L33.3802 47.5883C23.7385 44.6736 16.7212 35.7155 16.7212 25.126H15.3413Z" fill="url(#paint1_radial_89_834)"></path>
  <path fill-rule="evenodd" clip-rule="evenodd" d="M40.2423 47.2781C40.4171 47.7635 40.7476 48.2108 41.6803 48.2494C53.9457 47.2781 63.6068 37.0183 63.6068 24.5041C63.6068 11.3495 52.9349 0.681152 39.7756 0.681152H29.2206C28.4621 0.836708 27.9762 1.28401 28.171 2.35217L28.346 2.99375C28.346 3.01311 28.3653 3.05183 28.3653 3.07119C28.4041 3.22675 28.4428 3.38229 28.4815 3.51849L31.5919 15.0801C31.8443 15.5848 32.4085 15.8379 32.7002 15.8379C32.8558 15.8379 33.0106 15.8379 33.1468 15.8572H39.7756C44.5376 15.8572 48.4058 19.724 48.4058 24.4854C48.4058 29.2454 44.5376 33.1121 39.7756 33.1121H38.3175C37.4236 33.209 36.5878 33.7537 37.3454 36.5516C37.3848 36.7266 37.4236 36.8627 37.4623 36.999L40.2423 47.2781Z" fill="#A44BC9"></path>
  <path fill-rule="evenodd" clip-rule="evenodd" d="M48.4452 23.8243V24.2515C48.309 19.6069 44.499 15.8763 39.8142 15.8763H34.7024C33.9052 15.8571 33.1862 15.8571 32.9139 15.8571C32.1948 15.8571 31.825 15.4878 31.6307 15.0606L28.5209 3.42084C28.5015 3.30399 28.4621 3.18785 28.4428 3.07101C28.4234 3.0323 28.4234 2.99358 28.4041 2.95486L28.2873 2.52691C28.0156 1.32256 28.4621 0.836535 29.2012 0.661621H31.3196C41.2136 3.69254 48.4452 12.9237 48.4452 23.8243Z" fill="url(#paint2_radial_89_834)" fill-opacity="0.7"></path>
  <path d="M48.4449 24.2516L47.7445 24.2709H49.1251L48.4449 24.2516ZM31.8246 15.8763L31.1637 16.0513L31.2999 16.556H31.8246V15.8763ZM27.7622 0.701039V0H26.8682L27.1012 0.874572L27.7622 0.699657V0.701039ZM31.2999 0.701039L31.4941 0.0400993L31.3973 0.000692299H31.2999V0.701039ZM49.1251 24.2709V23.8235H47.7445V24.2516L49.1251 24.2709ZM39.8139 16.5761C44.1294 16.5761 47.6284 19.9962 47.7445 24.2709L49.1251 24.2322C48.9696 19.2184 44.8678 15.1961 39.8139 15.1961V16.5761ZM31.8246 16.5761H39.7946V15.1961H31.8246V16.5761ZM27.1012 0.874572L31.1637 16.0713L32.5049 15.7209L28.423 0.506076L27.1012 0.874572ZM31.2999 0.000692299L27.7622 0V1.38065H31.2999V0.000692299ZM49.1251 23.8235C49.1251 12.6118 41.6993 3.1291 31.4941 0.0400993L31.0862 1.3606C40.7272 4.27606 47.7445 13.234 47.7445 23.8235H49.1251Z" fill="url(#paint3_radial_89_834)"></path>
  <defs>
    <radialGradient id="paint0_radial_89_834" cx="0" cy="0" r="1" gradientUnits="userSpaceOnUse" gradientTransform="translate(13.2604 22.7102) rotate(70.584) scale(54.5301 47.8599)">
      <stop stop-color="#C2BDFF"></stop>
      <stop offset="1" stop-color="#544BC9" stop-opacity="0"></stop>
    </radialGradient>
    <radialGradient id="paint1_radial_89_834" cx="0" cy="0" r="1" gradientUnits="userSpaceOnUse" gradientTransform="translate(19.9962 48.2499) rotate(-75.287) scale(14.2744 12.5288)">
      <stop stop-color="#E5E3FF"></stop>
      <stop offset="1" stop-color="#544BC9" stop-opacity="0"></stop>
    </radialGradient>
    <radialGradient id="paint2_radial_89_834" cx="0" cy="0" r="1" gradientUnits="userSpaceOnUse" gradientTransform="translate(51.2026 26.2349) rotate(-109.416) scale(54.5301 47.8598)">
      <stop stop-color="#EBBCFF"></stop>
      <stop offset="1" stop-color="#A44BC9" stop-opacity="0"></stop>
    </radialGradient>
    <radialGradient id="paint3_radial_89_834" cx="0" cy="0" r="1" gradientUnits="userSpaceOnUse" gradientTransform="translate(44.4718 0.693595) rotate(104.713) scale(14.2745 12.5288)">
      <stop stop-color="#F6E1FF"></stop>
      <stop offset="1" stop-color="#A44BC9" stop-opacity="0"></stop>
    </radialGradient>
  </defs>
</svg>
