<?xml version="1.0" encoding="UTF-8"?>
<svg xmlns="http://www.w3.org/2000/svg" width="143" height="24" fill="none" viewBox="0 0 143 24">
  <rect width="52" height="24" fill="#70706E" rx="4"></rect>
  <g clip-path="url(#a)">
    <path fill="#fff" d="m6.3 19.292-.002.005v-.005h.001Z"></path>
    <path fill="#fff" d="m6.3 19.292.513-2.091.978 1.23.002.004c.025.034.05.068.075.107a2.64 2.64 0 0 1 .083.135l.345-1.396h.303l-.515 2.091-.998-1.256-.078-.105a.534.534 0 0 1-.061-.12l-.345 1.401h-.303ZM5.005 17.28h-.324l-.309 1.262c-.067.27-.046.475.057.61.103.135.293.2.571.2.278 0 .505-.07.675-.205.175-.135.293-.34.36-.61l.309-1.256h-.33l-.303 1.226c-.047.18-.119.32-.227.41a.624.624 0 0 1-.412.135c-.17 0-.283-.045-.345-.135-.061-.09-.072-.23-.025-.41l.303-1.227Zm3.569 2.017.494-2.017h.33l-.494 2.017h-.33Zm.798-.005-.001.005v-.005h.001Zm0 0 .493-2.012h1.128l-.067.28h-.798l-.124.501h.798l-.072.285h-.798l-.232.946h-.328Zm1.492.005.494-2.017h.33l-.494 2.017h-.33Zm1.294-2.017-.495 2.017h1.128l.072-.295h-.798l.16-.65h.798l.072-.286h-.799l.124-.505h.798l.067-.28h-1.127Z"></path>
    <path fill="#fff" fill-rule="evenodd" d="m13.17 19.297.002-.005h.529c.237 0 .417-.015.535-.045a1.178 1.178 0 0 0 .69-.485c.093-.14.16-.296.206-.476.041-.175.052-.335.026-.475a.63.63 0 0 0-.18-.34.62.62 0 0 0-.273-.145c-.108-.03-.31-.046-.598-.046h-.442l-.493 2.012h-.002v.005Zm.402-.3h.278c.15 0 .268-.01.35-.03a.677.677 0 0 0 .222-.1.826.826 0 0 0 .231-.245c.062-.096.108-.21.14-.34.03-.13.04-.24.025-.336a.456.456 0 0 0-.113-.245.351.351 0 0 0-.18-.1 1.588 1.588 0 0 0-.366-.03h-.237l-.35 1.426Zm2.852.3.222-.906v.006h.19c.145 0 .258-.01.33-.025a.703.703 0 0 0 .2-.08.7.7 0 0 0 .196-.19.83.83 0 0 0 .119-.266.64.64 0 0 0 .01-.26.33.33 0 0 0-.262-.27 1.551 1.551 0 0 0-.32-.026h-.5l-.493 2.017h.308Zm.392-1.176h-.083l.145-.56h.082c.17 0 .283.02.34.065.051.04.067.12.041.225-.026.1-.072.17-.144.21-.072.04-.201.06-.381.06Zm1.982 1.176-.103-.52h-.803l-.36.52h-.345l1.493-2.096.463 2.096h-.345Zm-.71-.795h.56l-.092-.46a.605.605 0 0 1-.01-.1c-.005-.04-.005-.08-.005-.126a.973.973 0 0 1-.067.125.985.985 0 0 1-.062.105l-.324.456Z" clip-rule="evenodd"></path>
    <path fill="#fff" d="m19.619 19.292-.002.005v-.005h.002Zm0 0 .225-.916-.412-1.09h.345l.257.685c.006.02.01.04.02.07.006.015.01.03.014.045l.013.045.061-.09c.02-.03.04-.054.06-.078l.002-.002.603-.675h.33l-.964 1.085-.226.921h-.328Zm3.134-.991c0-.015.005-.06.016-.13.005-.06.01-.105.015-.145a1.1 1.1 0 0 1-.16.28l-.792 1.076-.258-1.096a1.016 1.016 0 0 1-.036-.255l-.026.088-.015.047a1.102 1.102 0 0 1-.062.145l-.463.991h-.304l.994-2.101.283 1.27c.005.02.01.056.015.1l.015.105.011.07a4.522 4.522 0 0 1 .163-.246.1.1 0 0 0 .017-.029l.896-1.27-.03 2.101h-.305l.026-1Zm1.04-1.021-.494 2.017h1.128l.072-.295H23.7l.16-.65h.797l.072-.286h-.798l.124-.505h.798l.067-.28h-1.128Zm1.008 2.017.002-.005h.302l.345-1.4c.015.044.036.08.062.12l.077.104.999 1.256.515-2.091h-.304l-.345 1.396a4.135 4.135 0 0 1-.082-.135c-.025-.04-.05-.073-.075-.107l-.003-.003-.978-1.231-.514 2.091v.005Zm2.925-.005.427-1.736h.536l.067-.28h-1.4l-.068.28h.536l-.428 1.736h.33Zm.772-.4.293-.12c.006.09.031.16.088.205a.37.37 0 0 0 .237.07c.098 0 .18-.025.252-.08a.363.363 0 0 0 .14-.215c.03-.12-.042-.225-.217-.315l-.012-.008c-.02-.01-.032-.018-.045-.022-.195-.11-.319-.206-.37-.296a.419.419 0 0 1-.031-.32.696.696 0 0 1 .267-.4.792.792 0 0 1 .48-.155c.149 0 .267.03.355.085a.33.33 0 0 1 .149.245l-.289.13a.301.301 0 0 0-.097-.14.255.255 0 0 0-.155-.045.379.379 0 0 0-.226.07.317.317 0 0 0-.124.185c-.03.12.057.235.258.34.015.01.025.015.035.02.176.09.294.18.345.27.052.09.062.196.031.33a.793.793 0 0 1-.293.456.868.868 0 0 1-.53.17c-.17 0-.304-.04-.397-.12a.385.385 0 0 1-.144-.34Zm2.921-1.612-.495 2.017h.33l.494-2.017h-.33Zm.308 2.017.001-.005h.303l.345-1.4c.015.044.035.08.061.12l.077.104 1 1.256.514-2.091h-.304l-.345 1.396-.036-.06a2.673 2.673 0 0 0-.046-.075 2.095 2.095 0 0 0-.077-.11l-.978-1.231-.514 2.091h-.001v.005Zm2.924-.005.428-1.736h.535l.067-.28h-1.4l-.067.28h.535l-.427 1.736h.33Zm.783.005.494-2.017h1.133l-.067.28h-.798l-.124.506h.798l-.072.285H36l-.16.651h.798l-.072.295h-1.132Z"></path>
    <path fill="#fff" fill-rule="evenodd" d="m37.246 19.292.222-.9h.036l.448.9h.37l-.468-.915a.71.71 0 0 0 .386-.165c.103-.09.17-.22.211-.38a.623.623 0 0 0 .01-.256.341.341 0 0 0-.097-.19.338.338 0 0 0-.17-.085 1.48 1.48 0 0 0-.304-.025h-.458l-.495 2.016h.31Zm.366-1.155h-.062l.14-.581h.061c.165 0 .273.025.324.07.052.045.062.125.036.235-.025.105-.072.175-.139.215-.066.04-.185.06-.36.06Z" clip-rule="evenodd"></path>
    <path fill="#fff" d="m38.523 19.297.001-.005h.328l.232-.946h.798l.072-.285h-.798l.124-.5h.798l.067-.28h-1.128l-.493 2.011h-.001v.005Z"></path>
    <path fill="#fff" fill-rule="evenodd" d="m41.139 18.777.103.52h.345l-.464-2.096-1.493 2.096h.345l.36-.52h.804Zm-.052-.275h-.56l.323-.456a.985.985 0 0 0 .062-.105.98.98 0 0 0 .067-.125c0 .045 0 .085.005.125 0 .035.005.07.01.1l.093.46Z" clip-rule="evenodd"></path>
    <path fill="#fff" d="M43.727 17.771a.654.654 0 0 0-.252-.175.918.918 0 0 0-.906.15.993.993 0 0 0-.345.55c-.051.216-.031.396.072.54.098.141.252.211.458.211.119 0 .237-.02.356-.065.118-.04.236-.105.36-.19l-.093.37c-.103.065-.21.11-.324.14-.113.03-.227.045-.35.045-.155 0-.294-.025-.412-.075a.715.715 0 0 1-.293-.225.702.702 0 0 1-.145-.34.988.988 0 0 1 .026-.42 1.366 1.366 0 0 1 .494-.756 1.328 1.328 0 0 1 .84-.3.871.871 0 0 1 .602.205l-.088.335Zm.526-.491-.494 2.017h1.127l.072-.295h-.798l.16-.65h.798l.072-.286h-.798l.124-.505h.798l.067-.28h-1.128Zm-6.487-1.756h-2.26L38.646 4.5h2.26l-3.14 11.024ZM36.592 4.845c-.154-.21-.396-.315-.726-.315H23.448l-.613 2.162H34.13l-.659 2.307h-9.036v-.005h-2.26l-1.874 6.58h2.26l1.256-4.413h10.159c.319 0 .617-.106.895-.316.278-.21.464-.47.551-.78L36.68 5.65c.098-.33.068-.596-.087-.806ZM17.985 15.574c.464 0 .876-.305 1-.74L21.928 4.53h-2.26l-2.538 8.887H8.09l2.538-8.887h-2.26l-2.842 9.948c-.093.31-.057.57.097.78.155.211.392.316.711.316h11.651Z"></path>
    <path fill="#098041" d="m44.81 4.52 2.857 5.525-6.009 5.524L44.81 4.52Z"></path>
    <path fill="#E97626" d="m42.801 4.52 2.858 5.525-6.014 5.524L42.801 4.52Z"></path>
  </g>
  <path fill="#54C1F0" d="M114.469 7.24a3.91 3.91 0 0 0-3.689-2.607h-.035a3.9 3.9 0 0 0-2.818 1.198 3.903 3.903 0 0 0-2.818-1.198h-.035c-.974 0-1.865.355-2.549.944v-.3a.575.575 0 0 0-.573-.531h-2.614a.577.577 0 0 0-.578.577V19.48c0 .32.258.578.578.578h2.614a.575.575 0 0 0 .57-.498l-.001-10.163c0-.036.001-.069.004-.102.042-.454.376-.827.902-.873h.482c.22.02.406.097.552.213.228.18.354.458.354.762l.01 10.112c0 .32.26.58.578.58h2.615c.309 0 .56-.246.574-.551l-.001-10.155a.957.957 0 0 1 .426-.814c.134-.086.295-.144.481-.16h.482a.953.953 0 0 1 .906.974l.01 10.1c0 .32.259.577.578.577h2.615a.578.578 0 0 0 .578-.578V8.62c0-.74-.084-1.055-.198-1.38ZM96.768 4.782h-1.495V2.36a.527.527 0 0 0-.628-.515c-1.657.454-1.325 2.743-4.352 2.938h-.294a.607.607 0 0 0-.127.015h-.002l.002.001a.576.576 0 0 0-.452.56v2.608c0 .317.26.576.579.576h1.578l-.003 11.054c0 .316.256.57.572.57h2.585a.57.57 0 0 0 .571-.57l.001-11.054h1.465a.578.578 0 0 0 .578-.576V5.359a.578.578 0 0 0-.578-.577Z"></path>
  <path fill="#12316B" d="M87.36 4.782h-2.614a.577.577 0 0 0-.577.577v5.39a.611.611 0 0 1-.613.601h-1.094a.611.611 0 0 1-.614-.61l-.01-5.381a.578.578 0 0 0-.578-.577h-2.615a.577.577 0 0 0-.578.577v5.908c0 2.244 1.605 3.844 3.857 3.844 0 0 1.69 0 1.742.01a.608.608 0 0 1 .008 1.205l-.044.009-3.823.013a.577.577 0 0 0-.579.576v2.606c0 .32.259.577.579.577h4.275c2.253 0 3.856-1.6 3.856-3.845V5.36a.577.577 0 0 0-.578-.577Zm-25.308 6.386a.613.613 0 0 1-.612.612l-1.66.001V8.557h1.66a.61.61 0 0 1 .612.611v2Zm.23-6.386h-5.715a.566.566 0 0 0-.567.565v2.554l.001.015-.001.036v11.56c0 .314.236.57.529.578h2.664a.577.577 0 0 0 .578-.576l.01-3.962h2.501c2.093 0 3.552-1.448 3.552-3.544V8.33c0-2.095-1.459-3.548-3.552-3.548ZM72.9 16.087a.603.603 0 0 1-.034.18.611.611 0 0 1-.582.393h-1.088c-.34 0-.616-.257-.616-.573v-.492l-.001-.019V13.86l.002-.004c.001-.315.276-.57.615-.57h1.088c.341 0 .617.256.617.574v2.228Zm-.415-11.29h-3.628c-.321 0-.58.243-.58.54v2.447c0 .315.275.572.614.572h3.455a.6.6 0 0 1 .52.552v.336c-.03.296-.245.511-.505.536H70.65c-2.275 0-3.896 1.507-3.896 3.623v3.032c0 2.104 1.393 3.601 3.652 3.601h4.742c.85 0 1.54-.642 1.54-1.433V8.71c0-2.399-1.239-3.913-4.203-3.913Z"></path>
  <path fill="#3DDC84" fill-rule="evenodd" d="m134.607 1.291-.939 1.732a5.82 5.82 0 0 1 2.261 2.03c.564.868.846 1.817.846 2.849h-12.229c0-1.032.282-1.981.846-2.85a5.795 5.795 0 0 1 2.274-2.03l-.939-1.731c-.061-.115-.04-.202.066-.264.115-.053.203-.027.265.079l.952 1.745a6.496 6.496 0 0 1 2.657-.556c.934 0 1.82.186 2.658.556l.952-1.745c.061-.106.149-.133.264-.08.106.062.127.15.066.265Zm-6.73 4.403c.141 0 .262-.05.364-.153a.497.497 0 0 0 .152-.363.498.498 0 0 0-.152-.364.498.498 0 0 0-.364-.151.507.507 0 0 0-.502.515c0 .141.048.262.145.363a.474.474 0 0 0 .357.153Zm5.58 0a.47.47 0 0 0 .356-.153.507.507 0 0 0 .146-.363.508.508 0 0 0-.146-.364.473.473 0 0 0-.356-.151.495.495 0 0 0-.364.151.494.494 0 0 0-.152.364c0 .141.05.262.152.363a.494.494 0 0 0 .364.153Z" clip-rule="evenodd"></path>
  <path fill="#3DDC84" d="M121.756 8.523a1.31 1.31 0 0 1 .965-.397c.37 0 .688.132.952.397a1.3 1.3 0 0 1 .397.952v5.685c0 .38-.131.7-.39.965-.261.264-.58.396-.959.396s-.701-.132-.965-.396a1.311 1.311 0 0 1-.397-.965V9.475c0-.37.132-.688.397-.952Zm2.843 8.66c0 .405.14.749.422 1.03.283.283.626.424 1.032.424h.978l.013 3.001c0 .38.133.701.397.965.264.265.582.397.952.397.379 0 .701-.132.965-.397.264-.264.397-.586.397-.965v-3.001h1.824v3.001c0 .38.132.701.397.965.264.265.585.397.965.397.378 0 .7-.132.965-.397.264-.264.396-.586.396-.965v-3.001h.992c.396 0 .736-.141 1.018-.423.282-.282.423-.625.423-1.031V8.377h-12.136v8.806Zm13.062-8.667c.264-.26.581-.39.951-.39.379 0 .701.13.966.39.264.26.396.58.396.959v5.685c0 .38-.132.7-.396.965a1.316 1.316 0 0 1-.966.396c-.37 0-.687-.132-.951-.396a1.311 1.311 0 0 1-.397-.965V9.475c0-.379.132-.699.397-.959Z"></path>
  <defs>
    <clipPath id="a">
      <path fill="#fff" d="M0 0h43.333v20H0z" transform="translate(4.333 2)"></path>
    </clipPath>
  </defs>
</svg>
