<?xml version="1.0" encoding="UTF-8"?>
<svg xmlns="http://www.w3.org/2000/svg" width="103" height="24" fill="none" viewBox="0 0 103 24">
  <path fill="#606060" d="M22.863 13.017c0-.665-.266-1.329-.665-1.994-.531-1.063-1.329-1.727-2.26-2.26-.797-.398-1.727-.53-2.524-.53.265-.665.531-1.33.531-1.994.133-.93-.266-1.861-.797-2.925a5.666 5.666 0 0 0-1.462-1.594c-.665-.4-1.197-.532-1.861-.665-.665-.133-1.33 0-2.127.133-.266.133-.93.399-1.063.399-.532.133-1.595.797-1.994 1.063L6.648 3.713c-.665.532-.93 1.33-.532 2.127.266.531.798.797 1.33.797.265 0 .53 0 .797-.133l3.19-1.727c.265-.133.531-.266.93-.266h.93l.798.398c.133.133.266.4.531.665.133.266.266.532.4.93v.93c0 .267-.134.532-.4.798-.133.266-.398.399-.664.532l-1.86 1.196-.798.399-.532.399c-.665.398-.93 1.196-.532 1.86.266.4.798.665 1.196.665.266 0 .532 0 .665-.133l1.196-.665 2.659-1.462c.265-.133.531-.265.797-.265s.532 0 .797.133l.798.398c.266.133.399.399.664.798.133.265.266.531.266.93v.93c0 .266-.133.532-.399.798-.132.266-.398.399-.797.665l-4.652 2.658h-.266l-.797.531-1.595.93c-.665.4-.93 1.33-.532 1.994.266.532.798.798 1.33.798.265 0 .531 0 .664-.133l3.987-2.127 3.19-1.727a10 10 0 0 0 1.86-1.462c.533-.532.931-1.197 1.197-1.728.266-.798.399-1.462.399-2.127Zm41.069 2.658c-.265 0-.664 0-.93-.266-.266-.265-.266-.531-.266-.93V7.036c0-.266 0-.664.266-.93s.532-.266.93-.266h2.792c1.993 0 3.057 1.063 3.057 2.791a2.212 2.212 0 0 1-1.197 1.994c.532.265 1.33.93 1.33 2.126 0 1.861-1.197 2.791-2.924 2.791l-3.057.133Zm.798-8.107v2.26h1.86c.798 0 1.197-.4 1.197-1.197 0-.798-.399-1.196-1.196-1.196l-1.861.133Zm1.994 6.38c.797 0 1.329-.532 1.329-1.197 0-.664-.399-1.196-1.33-1.196H64.73v2.392h1.994Zm6.246-1.33c0 .93.532 1.595 1.595 1.595.399 0 .93-.132 1.196-.398.266-.133.399-.266.665-.266.398 0 .664.399.664.797 0 .4-.266.665-.664.93-.532.267-1.196.4-1.994.4-1.728 0-3.323-.798-3.323-3.722 0-2.392 1.197-3.722 3.19-3.722 1.994 0 3.057 1.33 3.19 3.19 0 .266 0 .532-.266.798s-.531.266-.797.266l-3.456.132Zm2.525-1.993c-.133-.399-.531-.798-1.196-.798-.664 0-.93.266-1.196.798-.133.266-.133.399-.133.797h2.791c-.133-.398-.133-.531-.266-.797Zm3.59-.532h-.133c-.399 0-.399 0-.532-.133s-.398-.266-.398-.532c0-.265.132-.531.398-.531.133-.133.266-.133.532-.133h.133V7.7c0-.4 0-.532.133-.798s.398-.399.797-.399.665.133.798.4c.132.132.132.398.132.797v.93h.532c.399 0 .399 0 .532.133.266.133.398.266.398.664 0 .266-.132.532-.398.532-.133.133-.266.133-.532.133h-.532v3.456c0 .398.133.531.532.664.266 0 .399 0 .532.133s.398.266.398.665a.731.731 0 0 1-.398.664h-.798c-1.462 0-2.126-.93-2.126-1.993v-3.589Zm4.784 0h-.133c-.399 0-.399 0-.532-.133-.132-.133-.398-.266-.398-.532 0-.265.133-.531.398-.531.133-.133.266-.133.532-.133h.133V7.7c0-.4 0-.532.133-.798s.399-.399.797-.399c.4 0 .665.133.798.4.133.132.133.398.133.797v.93h.531c.4 0 .4 0 .532.133.133.133.399.266.399.531 0 .266-.133.532-.399.532-.133.133-.266.133-.532.133h-.531v3.456c0 .399.133.531.531.664.266 0 .4 0 .532.133.133.133.399.266.399.665a.731.731 0 0 1-.399.664c-.133.133-.399.133-.665.133h-.132c-1.462 0-2.127-.93-2.127-1.993v-3.589Zm5.848 2.525c0 .93.532 1.595 1.595 1.595.399 0 .93-.133 1.196-.398.266-.133.4-.266.665-.266.399 0 .665.399.665.797 0 .399-.266.665-.665.93-.532.4-1.196.532-1.994.532-1.728 0-3.323-.797-3.323-3.721 0-2.393 1.197-3.722 3.19-3.722 1.994 0 3.057 1.33 3.19 3.19 0 .266 0 .532-.266.798-.266.265-.531.265-.797.265h-3.456Zm2.526-1.993c-.133-.399-.532-.798-1.197-.798-.531 0-.93.266-1.196.798-.133.265-.133.399-.133.797h2.791c-.133-.399-.133-.532-.265-.797Zm6.778-2.26c.532 0 .931.133 1.196.399.266.133.399.399.399.797 0 .266-.133.532-.266.665-.133 0-.398.133-.531.133s-.399 0-.532-.133-.399-.133-.665-.133c-.531 0-1.196.399-1.196 1.33v3.19c0 .398 0 .53-.133.796-.266 0-.399.266-.797.266-.399 0-.665-.133-.798-.398-.133-.133-.133-.4-.133-.798V9.561c0-.398 0-.531.133-.797s.4-.399.798-.399c.266 0 .398.133.532.133.132.133.265.266.265.532.399-.266.931-.665 1.728-.665Z"></path>
  <path fill="#F69220" d="M8.907 18.2c-.399 0-.93-.265-1.196-.664l-5.583-9.57A1.344 1.344 0 0 1 2.66 6.24c.665-.4 1.462-.133 1.86.531l5.583 9.57c.399.664.133 1.462-.532 1.86h-.664Zm24.323-5.183-1.596-3.19v4.386c0 .399 0 .532-.133.798s-.398.399-.797.399-.665-.133-.798-.4c-.133-.265-.133-.398-.133-.797V7.036c0-.399 0-.664.266-.93.133-.133.399-.266.665-.266s.399 0 .531.133l.532.531 2.393 4.652 2.392-4.652a1.04 1.04 0 0 1 .532-.531c.133-.133.398-.133.531-.133.266 0 .399.133.665.266.266.266.266.531.266.93v7.31c0 .399 0 .532-.133.798-.133.265-.4.398-.798.398s-.664-.133-.797-.398c-.133-.266-.133-.4-.133-.798V9.96l-1.595 3.057c-.266.399-.399.665-.93.665-.4 0-.665-.133-.93-.665Zm9.569 2.658c-.665 0-1.33-.266-1.728-.664-.532-.532-.798-1.196-.798-1.994V9.561c0-.398 0-.531.133-.797s.4-.399.798-.399c.399 0 .664.133.797.399.133.133.133.399.133.797v3.19c0 .93.532 1.33 1.196 1.33.532 0 1.197-.266 1.197-1.33v-3.19c0-.398 0-.531.133-.797.132-.266.398-.399.797-.399s.664.133.797.399c.133.133.133.399.133.797v4.785c0 .399 0 .532-.133.798-.133.265-.398.398-.797.398-.266 0-.399-.133-.532-.133-.133-.132-.133-.265-.265-.531-.532.531-1.197.797-1.861.797Zm9.57-6.911c.398.133.797.531.797.93 0 .266-.133.399-.266.532s-.398.266-.531.266-.4 0-.532-.266c-.266-.133-.532-.266-.798-.266-.398 0-.797.133-.93.399-.266.398-.399.797-.399 1.595 0 .797.133 1.196.4 1.595.265.265.53.398.93.398.398 0 .531-.133.797-.265.266-.133.399-.266.532-.266s.398.133.531.265c.133.266.266.4.266.665 0 .399-.399.797-.797.93a2.246 2.246 0 0 1-1.33.4c-1.329 0-3.19-.798-3.19-3.59 0-2.79 1.729-3.588 3.19-3.588.4-.133.798 0 1.33.266Zm7.841 6.38c-.133.265-.398.398-.797.398s-.665-.133-.797-.398c-.133-.133-.133-.4-.133-.798V11.29c0-.93-.532-1.329-1.197-1.329-.664 0-1.196.266-1.196 1.33v3.056c0 .399 0 .532-.133.798-.133.265-.398.398-.797.398s-.665-.133-.798-.398c.133-.133.133-.266.133-.798v-7.31c0-.399 0-.532.133-.797.133-.266.399-.4.798-.4.398 0 .664.134.797.4.133.133.133.398.133.797v2.127c.399-.4.93-.798 1.728-.798.664 0 1.329.266 1.728.665.531.531.797 1.196.797 1.993v3.323c-.266.532-.399.665-.399.798Z"></path>
</svg>
