<?xml version="1.0" encoding="UTF-8"?>
<svg xmlns="http://www.w3.org/2000/svg" width="66" height="24" fill="none" viewBox="0 0 66 24">
  <path fill="#000" d="M4.352 3.435 0 16.185h2.557l1.229-3.72h3.536l1.262 3.72h2.61l-4.35-12.75H4.351Zm2.36 6.92H4.429l.946-2.807c.066-.196.131-.381.185-.577.066.196.12.392.196.587l.958 2.796Zm8.791.032c-1.175-.468-1.305-.685-1.305-1.023 0-.424.359-.696.935-.696.697 0 1.23.272 1.49.435l.501.316.664-2.024-.294-.196c-.576-.38-1.447-.598-2.328-.598-1.97 0-3.395 1.24-3.395 2.96 0 1.577 1.393 2.415 2.568 2.839 1.164.435 1.262.74 1.262 1.11 0 .696-.74.805-1.164.805-.675 0-1.403-.294-1.817-.534l-.5-.293-.653 2.067.315.185c.719.424 1.665.663 2.622.663 2.165 0 3.623-1.218 3.623-3.024 0-1.839-1.447-2.59-2.524-2.992Zm6.365-5.81-2.437.74v1.458h-1.306v2.1h1.317v4.167c0 1.164.239 1.99.718 2.546.467.522 1.185.805 2.001.805a4.67 4.67 0 0 0 1.523-.24l.327-.12-.13-2.11-.555.174a2.713 2.713 0 0 1-.762.087c-.294 0-.696 0-.696-1.186V8.875h2.208v-2.1h-2.198l-.01-2.198Zm8.137 2.111-.446-.054a2.536 2.536 0 0 0-.435-.033 2.81 2.81 0 0 0-2.023.87l-.022-.696h-2.285l.033.49c.043.718.076 1.555.076 2.622v6.31h2.47v-4.994c0-.24.021-.468.043-.642.185-.979.794-1.588 1.61-1.588.196 0 .316 0 .425.022l.554.12V6.687Zm4.505-.087c-2.753 0-4.679 2.035-4.679 4.961 0 2.84 1.86 4.83 4.526 4.83 2.263 0 4.69-1.555 4.69-4.971.021-2.84-1.85-4.82-4.537-4.82Zm2.056 4.863c0 1.643-.892 2.84-2.11 2.84-1.22 0-2.1-1.186-2.1-2.796 0-1.045.456-2.818 2.143-2.818 1.631-.011 2.067 1.806 2.067 2.774Zm10.596-7.017c-.816-.729-2.034-1.099-3.623-1.099a17.31 17.31 0 0 0-3.002.24l-.381.065v12.544h2.448V11.53c.25.021.511.032.761.032 1.654 0 3.057-.511 3.95-1.436.696-.707 1.044-1.665 1.044-2.85-.01-1.143-.424-2.144-1.197-2.829ZM45.9 7.352c0 1.784-1.566 2.045-2.502 2.045-.316 0-.577-.01-.805-.043v-3.83c.24-.033.566-.043.979-.043 1.066.01 2.328.337 2.328 1.87Zm9.966 6.342v-3.176c0-2.535-1.317-3.917-3.688-3.917-1.1 0-2.252.305-3.057.805l-.305.196.664 1.958.51-.348c.512-.348 1.252-.555 1.981-.555.49-.01.86.11 1.099.348.196.196.315.49.359.86-1.926.054-3.34.522-4.189 1.37-.598.588-.903 1.35-.903 2.253 0 1.436 1.045 2.904 3.057 2.904a3.73 3.73 0 0 0 2.296-.761l.065.555h2.34l-.077-.533c-.12-.512-.152-1.175-.152-1.959Zm-4.113.631c-.37 0-.979-.13-.979-1.011 0-.338.098-.599.316-.816.293-.283.924-.61 2.36-.642v1.012c0 .076-.01.206-.043.348-.185.511-.718 1.11-1.654 1.11Zm10.902-7.55-1.785 5.298-.13.403a3.927 3.927 0 0 0-.142-.38l-1.947-5.32h-2.698l3.372 8.453.011.021a.675.675 0 0 1 .077.196c-.022.044-.055.13-.077.185-.293.631-.729 1.208-1.164 1.556l-.01.01c-.49.414-1.002.61-1.197.664l-.436.142.631 2.11.403-.076c.25-.043 1.12-.25 2.121-1.088 1.197-1.055 1.991-2.752 3.036-5.505l2.556-6.68-2.621.011Z"></path>
  <path fill="red" d="M9.02 6.95c1.588-1.622 4.286-2.59 7.212-2.59 1.143 0 2.252.141 3.297.435l.087.022 1.882-.566-.849-.315C19.05 3.326 17.2 3 15.307 3c-2.752 0-5.309.664-7.234 1.871l-.207.13.794 2.318.36-.37Z"></path>
</svg>
