<?xml version="1.0" encoding="UTF-8"?>
<svg xmlns="http://www.w3.org/2000/svg" width="82" height="24" fill="none" viewBox="0 0 82 24">
  <path fill="#83BA3B" fill-rule="evenodd" d="M76.07 6.04c-.962-.655-2.424-1.002-4.31-1.002h-5.002l-1.847 10.087H58.37l.423-2.31h3.925l.461-2.58h-3.963l.424-2.27h4.078L64.257 5h-8.234l-1.77 9.548H51.25L53.021 5h-4.31l-1.77 9.548H43.98L45.75 5h-4.31l-1.885 10.087h-6.54l.422-2.31H37.4l.461-2.58h-3.963l.423-2.31h4.117l.5-2.887H13.275l-1.462 8.046-2.924-8.008H4.424L2 18.09h4.271l1.462-8.2 2.809 8.2h15.314l1.886-10.087h2.385L28.242 18.09h40.286l1.154-6.353 1.886 6.353h4.31l-1.963-5.198.423-.077c1-.23 1.77-.654 2.309-1.347.538-.693.808-1.579.808-2.618 0-1.27-.462-2.195-1.385-2.81Zm-53.908 9.085h-6.54l.422-2.31h4.117l.462-2.58h-4.078l.384-2.27h6.542l-1.309 7.16Zm50.406-4.389c-.423.308-1.039.424-1.924.424h-.846l.654-3.504h.616c.692 0 1.23.116 1.577.347.27.192.616.539.616 1.232 0 .847-.385 1.27-.693 1.501Zm6.811 6.507-.116-2.04.924-.04c.154 0 .27 0 .423.04l.034.015c.073.035.164.077.197.177.053.053.07.124.087.202.008.034.017.07.028.106 0 .115-.038.27-.115.385a.916.916 0 0 1-.423.23c.038.02.067.03.096.04a.511.511 0 0 1 .096.038l.061.056a.55.55 0 0 1 .17.213l.385.54h-.347l-.307-.424c-.077-.116-.154-.232-.231-.27-.039-.038-.078-.077-.154-.115-.039-.039-.077-.039-.116-.039h-.461l.038.924-.27-.038Zm.23-1.155.578-.039c.077 0 .192 0 .308-.038a.55.55 0 0 0 .153-.115c.039-.039.039-.116.039-.193s-.038-.193-.115-.231c-.078-.077-.231-.077-.347-.077l-.654.038.039.655Z" clip-rule="evenodd"></path>
  <path fill="#83BA3B" fill-rule="evenodd" d="M78.186 16.242c-.077-1.04.77-1.964 1.808-2.002 1.04-.039 1.963.77 2.001 1.81.077 1.039-.77 1.963-1.808 2.001-1.04.077-1.963-.77-2.001-1.81Zm1.77-1.694c-.847.038-1.54.808-1.462 1.694.038.847.73 1.501 1.539 1.501.885 0 1.616-.693 1.616-1.578v-.154c-.039-.847-.808-1.54-1.693-1.463Z" clip-rule="evenodd"></path>
</svg>
