<?xml version="1.0" encoding="UTF-8"?>
<svg xmlns="http://www.w3.org/2000/svg" width="100" height="100" viewBox="0 0 100 100" fill="none">
  <path d="M90.9248 0.0625609C90.8211 0.0541687 90.7333 0 90.625 0H45.8336C38.942 0 33.3336 5.60837 33.3336 12.5V16.6664C33.3336 18.9667 35.1997 20.8336 37.5 20.8336C39.8003 20.8336 41.6664 18.9667 41.6664 16.6664V12.5C41.6664 10.2043 43.5371 8.33359 45.8336 8.33359H65.2458L63.9748 8.75854C60.6003 9.92508 58.3336 13.1042 58.3336 16.6664V79.1664H45.8336C43.5371 79.1664 41.6664 77.2957 41.6664 75V66.6664C41.6664 64.3669 39.8003 62.5 37.5 62.5C35.1997 62.5 33.3336 64.3669 33.3336 66.6664V75C33.3336 81.8916 38.942 87.5 45.8336 87.5H58.3336V91.6664C58.3336 96.2624 62.0705 100 66.6664 100C67.5583 100 68.4044 99.8711 69.3207 99.5872L94.3542 91.2415C97.7333 90.0749 100 86.8958 100 83.3336V8.33359C100 3.47519 95.8122 -0.333404 90.9248 0.0625609Z" fill="#293047"></path>
  <path d="M44.6121 38.7207L27.9457 22.0543C26.754 20.8626 24.9626 20.504 23.4039 21.1502C21.8498 21.7957 20.8336 23.317 20.8336 25V37.5H4.16641C1.86691 37.5 0 39.3669 0 41.6664C0 43.9667 1.86691 45.8336 4.16641 45.8336H20.8336V58.3336C20.8336 60.0166 21.8498 61.5372 23.4039 62.1834C24.9626 62.8288 26.754 62.471 27.9457 61.2793L44.6121 44.6121C46.2418 42.9832 46.2418 40.3503 44.6121 38.7207Z" fill="#293047"></path>
</svg>
