<?xml version="1.0" encoding="UTF-8"?>
<svg xmlns="http://www.w3.org/2000/svg" width="113" height="100" viewBox="0 0 113 100" fill="none">
  <path d="M51.313 100C50.9727 100 50.636 99.9289 50.3243 99.7912C50.0125 99.6536 49.7323 99.4523 49.5014 99.2001L0.65546 45.883C0.329841 45.5275 0.113976 45.084 0.0342843 44.6067C-0.0454071 44.1294 0.0145314 43.6389 0.206765 43.1954C0.398999 42.752 0.715188 42.3746 1.11664 42.1097C1.51808 41.8447 1.98737 41.7036 2.46707 41.7036H25.9788C26.3318 41.7036 26.6807 41.7801 27.0019 41.9278C27.3232 42.0754 27.6093 42.2909 27.841 42.5597L44.1655 61.5111C45.9297 57.7055 49.3449 51.3692 55.3381 43.6481C64.198 32.2336 80.6779 15.4464 108.873 0.292145C109.418 -0.00069347 110.052 -0.0766968 110.65 0.0791439C111.248 0.234985 111.766 0.611341 112.102 1.1339C112.438 1.65645 112.568 2.28722 112.466 2.90165C112.364 3.51608 112.037 4.06951 111.55 4.45266C111.443 4.53755 100.571 13.1762 88.0601 28.9995C76.5455 43.5608 61.239 67.3707 53.7071 98.1089C53.5748 98.649 53.267 99.1287 52.833 99.4717C52.3989 99.8146 51.8642 100 51.313 100Z" fill="#A44BC9"></path>
</svg>
